<?xml version="1.0" encoding="UTF-8"?>
<!-- Generated by jsxcad -->
<!DOCTYPE svg PUBLIC "-//W3C//DTD SVG 1.1 Tiny//EN" "http://www.w3.org/Graphics/SVG/1.1/DTD/svg11-tiny.dtd">
<svg viewBox="-250 -250 500 500" width="500" height="500" xmlns="http://www.w3.org/2000/svg"><path d="M-26.221764969595373,-65.93167678575186L-14.923054067361697,-89.19902938036711L-25.73813712713472,-83.917751656381zM-26.221764969595373,-65.93167678575186L-10.142658317470865,-90.86311505867872L-14.923054067361697,-89.19902938036711zM-40.95914467901613,-56.38151114492167L-25.73813712713472,-83.917751656381L-35.11996317765911,-79.33636936296094zM-40.95914467901613,-56.38151114492167L-35.11996317765911,-79.33636936296094L-40.139090060628455,-76.09717279976763zM-10.325999344185881,-73.68611252653899L6.124275271472822,-96.52573075984722L-10.142658317470865,-90.86311505867872zM-54.07034715662028,-45.323225990938745L-40.139090060628455,-76.09717279976763L-52.84459569680072,-67.89743958353819zM6.235302252209464,-79.40124198121708L22.53719390537161,-100.03143670706096L6.124275271472822,-96.52573075984722zM-65.11776187953316,-33.08756384000042L-52.84459569680072,-67.89743958353819L-53.88093054574878,-67.22861300584681zM-26.221764969595373,-65.93167678575186L-10.325999344185881,-73.68611252653899L-10.142658317470865,-90.86311505867872zM-40.95914467901613,-56.38151114492167L-26.221764969595373,-65.93167678575186L-25.73813712713472,-83.917751656381zM-65.11776187953316,-33.08756384000042L-53.88093054574878,-67.22861300584681L-63.427884026835486,-59.24702850757731zM-10.325999344185881,-73.68611252653899L6.235302252209464,-79.40124198121708L6.124275271472822,-96.52573075984722z" style="fill:rgb(83,212,212)"/><path d="M-7.511591842628766,-67.94163748416965L-26.221764969595373,-65.93167678575186L-23.326758691218178,-60.2296622163484z" style="fill:rgb(162,50,222)"/><path d="M-54.07034715662028,-45.323225990938745L-40.95914467901613,-56.38151114492167L-40.139090060628455,-76.09717279976763zM22.94793989218447,-82.87991781647847L27.41113834807809,-101.07248227881175L22.53719390537161,-100.03143670706096z" style="fill:rgb(83,212,212)"/><path d="M-23.326758691218178,-60.2296622163484L-40.95914467901613,-56.38151114492167L-37.98222048391496,-50.717171141475376z" style="fill:rgb(183,62,221)"/><path d="M8.972328527247466,-73.61056004034198L-10.325999344185881,-73.68611252653899L-7.511591842628766,-67.94163748416965z" style="fill:rgb(139,40,220)"/><path d="M-7.511591842628766,-67.94163748416965L-10.325999344185881,-73.68611252653899L-26.221764969595373,-65.93167678575186z" style="fill:rgb(162,50,222)"/><path d="M-23.326758691218178,-60.2296622163484L-26.221764969595373,-65.93167678575186L-40.95914467901613,-56.38151114492167z" style="fill:rgb(183,62,221)"/><path d="M22.94793989218447,-82.87991781647847L38.544228673590915,-101.91105095397185L27.41113834807809,-101.07248227881175zM-73.70121235759468,-20.047667540070353L-63.427884026835486,-59.24702850757731L-70.6450453965044,-53.21322911904096zM-73.70121235759468,-20.047667540070353L-70.6450453965044,-53.21322911904096L-71.36395431650588,-52.42843968209532z" style="fill:rgb(83,212,212)"/><path d="M8.972328527247466,-73.61056004034198L6.235302252209464,-79.40124198121708L-10.325999344185881,-73.68611252653899z" style="fill:rgb(139,40,220)"/><path d="M6.235302252209464,-79.40124198121708L22.94793989218447,-82.87991781647847L22.53719390537161,-100.03143670706096zM-65.11776187953316,-33.08756384000042L-54.07034715662028,-45.323225990938745L-52.84459569680072,-67.89743958353819z" style="fill:rgb(83,212,212)"/><path d="M-37.98222048391496,-50.717171141475376L-54.07034715662028,-45.323225990938745L-51.01223536717625,-39.690992447291016z" style="fill:rgb(203,77,216)"/><path d="M25.61263025973252,-77.0405860466506L6.235302252209464,-79.40124198121708L8.972328527247466,-73.61056004034198z" style="fill:rgb(115,34,214)"/><path d="M-37.98222048391496,-50.717171141475376L-40.95914467901613,-56.38151114492167L-54.07034715662028,-45.323225990938745z" style="fill:rgb(203,77,216)"/><path d="M39.280287379310835,-83.97553850442367L48.30031280115932,-102.64590502215178L38.544228673590915,-101.91105095397185z" style="fill:rgb(83,212,212)"/><path d="M25.61263025973252,-77.0405860466506L22.94793989218447,-82.87991781647847L6.235302252209464,-79.40124198121708z" style="fill:rgb(115,34,214)"/><path d="M-79.46883091889919,-6.617751372611753L-71.36395431650588,-52.42843968209532L-76.3694724072285,-46.96417253272157z" style="fill:rgb(83,212,212)"/><path d="M-51.01223536717625,-39.690992447291016L-54.07034715662028,-45.323225990938745L-65.11776187953316,-33.08756384000042z" style="fill:rgb(220,94,208)"/><path d="M22.94793989218447,-82.87991781647847L39.280287379310835,-83.97553850442367L38.544228673590915,-101.91105095397185zM-73.70121235759468,-20.047667540070353L-65.11776187953316,-33.08756384000042L-63.427884026835486,-59.24702850757731z" style="fill:rgb(83,212,212)"/><path d="M-51.01223536717625,-39.690992447291016L-65.11776187953316,-33.08756384000042L-61.98142506214578,-27.481251666407577z" style="fill:rgb(220,94,208)"/><path d="M39.280287379310835,-83.97553850442367L53.56823941014967,-102.23818147638222L48.30031280115932,-102.64590502215178z" style="fill:rgb(83,212,212)"/><path d="M41.87949796581529,-78.08669909121649L22.94793989218447,-82.87991781647847L25.61263025973252,-77.0405860466506z" style="fill:rgb(92,32,204)"/><path d="M-82.13141295736318,6.750454647858509L-76.3694724072285,-46.96417253272157L-78.06648156003732,-45.111650064205065z" style="fill:rgb(83,212,212)"/><path d="M41.87949796581529,-78.08669909121649L39.280287379310835,-83.97553850442367L22.94793989218447,-82.87991781647847z" style="fill:rgb(92,32,204)"/><path d="M-61.98142506214578,-27.481251666407577L-65.11776187953316,-33.08756384000042L-73.70121235759468,-20.047667540070353z" style="fill:rgb(233,112,197)"/><path d="M54.6887896760693,-82.59855338192952L67.02398512277679,-101.19678060460924L53.56823941014967,-102.23818147638222zM-79.46883091889919,-6.617751372611753L-73.70121235759468,-20.047667540070353L-71.36395431650588,-52.42843968209532zM39.280287379310835,-83.97553850442367L54.6887896760693,-82.59855338192952L53.56823941014967,-102.23818147638222z" style="fill:rgb(83,212,212)"/><path d="M-61.98142506214578,-27.481251666407577L-73.70121235759468,-20.047667540070353L-70.49210392347523,-14.460640820353174z" style="fill:rgb(233,112,197)"/><path d="M57.23123574891132,-76.66120288907275L39.280287379310835,-83.97553850442367L41.87949796581529,-78.08669909121649z" style="fill:rgb(71,33,192)"/><path d="M-107.16886048384418,30.06756251961918L-78.06648156003732,-45.111650064205065L-84.87740171886061,-37.67652847616087zM-42.63397837527287,-98.25722028453119L-30.70525984927493,-121.58761400412688L-41.82513108236271,-116.1450497927699zM-42.63397837527287,-98.25722028453119L-25.80150717984067,-123.32750469580675L-30.70525984927493,-121.58761400412688zM-57.83694681918942,-88.49569740689236L-41.82513108236271,-116.1450497927699L-51.47120148606098,-111.42382670852898zM-57.83694681918942,-88.49569740689236L-51.47120148606098,-111.42382670852898L-56.64580370683249,-108.11478185679333zM-26.281520726432714,-106.25286737644943L-9.113033405341417,-129.2486984929098L-25.80150717984067,-123.32750469580675zM-71.41113154591517,-77.260326855186L-56.64580370683249,-108.11478185679333L-69.74581104969512,-99.73762665982338z" style="fill:rgb(83,212,212)"/><path d="M57.23123574891132,-76.66120288907275L54.6887896760693,-82.59855338192952L39.280287379310835,-83.97553850442367z" style="fill:rgb(71,33,192)"/><path d="M-107.16886048384418,30.06756251961918L-84.87740171886061,-37.67652847616087L-96.07458325987405,-21.05735875066396zM68.62641124884043,-78.72494116000718L68.12920302770509,-101.11123679446698L67.02398512277679,-101.19678060460924zM-9.283082561026266,-112.23324638425224L7.692596124028652,-133.03130161267518L-9.113033405341417,-129.2486984929098zM-82.90624290717021,-64.88511474412367L-69.74581104969512,-99.73762665982338L-70.8143768626027,-99.05429165656126zM-42.63397837527287,-98.25722028453119L-26.281520726432714,-106.25286737644943L-25.80150717984067,-123.32750469580675zM-57.83694681918942,-88.49569740689236L-42.63397837527287,-98.25722028453119L-41.82513108236271,-116.1450497927699zM-82.90624290717021,-64.88511474412367L-70.8143768626027,-99.05429165656126L-80.6927722239446,-90.94901433234747zM-82.13141295736318,6.750454647858509L-79.46883091889919,-6.617751372611753L-76.3694724072285,-46.96417253272157z" style="fill:rgb(83,212,212)"/><path d="M-70.49210392347523,-14.460640820353174L-73.70121235759468,-20.047667540070353L-79.46883091889919,-6.617751372611753z" style="fill:rgb(242,130,183)"/><path d="M68.62641124884043,-78.72494116000718L78.39075520432358,-98.44075006080836L68.12920302770509,-101.11123679446698zM-26.281520726432714,-106.25286737644943L-9.283082561026266,-112.23324638425224L-9.113033405341417,-129.2486984929098zM54.6887896760693,-82.59855338192952L68.62641124884043,-78.72494116000718L67.02398512277679,-101.19678060460924z" style="fill:rgb(83,212,212)"/><path d="M-23.30078767868179,-100.16890722440117L-42.63397837527287,-98.25722028453119L-39.56796297281757,-92.2183855939127z" style="fill:rgb(162,50,222)"/><path d="M-71.41113154591517,-77.260326855186L-57.83694681918942,-88.49569740689236L-56.64580370683249,-108.11478185679333z" style="fill:rgb(83,212,212)"/><path d="M-70.49210392347523,-14.460640820353174L-79.46883091889919,-6.617751372611753L-76.19507503418185,-1.0430191339004646z" style="fill:rgb(242,130,183)"/><path d="M71.12274231957348,-72.74215159547589L54.6887896760693,-82.59855338192952L57.23123574891132,-76.66120288907275z" style="fill:rgb(51,38,177)"/><path d="M7.836924475394896,-115.99381958463856L12.68413031382507,-134.1547924754704L7.692596124028652,-133.03130161267518z" style="fill:rgb(83,212,212)"/><path d="M-39.56796297281757,-92.2183855939127L-57.83694681918942,-88.49569740689236L-54.68380295241755,-82.49605093898174z" style="fill:rgb(183,62,221)"/><path d="M-6.383812729572798,-106.09930833739334L-26.281520726432714,-106.25286737644943L-23.30078767868179,-100.16890722440117z" style="fill:rgb(139,40,220)"/><path d="M-23.30078767868179,-100.16890722440117L-26.281520726432714,-106.25286737644943L-42.63397837527287,-98.25722028453119z" style="fill:rgb(162,50,222)"/><path d="M-39.56796297281757,-92.2183855939127L-42.63397837527287,-98.25722028453119L-57.83694681918942,-88.49569740689236z" style="fill:rgb(183,62,221)"/><path d="M7.836924475394896,-115.99381958463856L24.063567332524972,-135.1922994377745L12.68413031382507,-134.1547924754704zM-91.90807411095838,-51.74559214267389L-80.6927722239446,-90.94901433234747L-88.16170894367205,-84.82070722163614zM-107.16886048384418,30.06756251961918L-96.07458325987405,-21.05735875066396L-103.77546602787288,-3.8504115449620717zM-91.90807411095838,-51.74559214267389L-88.16170894367205,-84.82070722163614L-88.90923965133712,-84.0274200316386z" style="fill:rgb(83,212,212)"/><path d="M-6.383812729572798,-106.09930833739334L-9.283082561026266,-112.23324638425224L-26.281520726432714,-106.25286737644943z" style="fill:rgb(139,40,220)"/><path d="M-9.283082561026266,-112.23324638425224L7.836924475394896,-115.99381958463856L7.692596124028652,-133.03130161267518zM-82.90624290717021,-64.88511474412367L-71.41113154591517,-77.260326855186L-69.74581104969512,-99.73762665982338z" style="fill:rgb(83,212,212)"/><path d="M-54.68380295241755,-82.49605093898174L-71.41113154591517,-77.260326855186L-68.17114273816269,-71.29313379719129z" style="fill:rgb(203,77,216)"/><path d="M10.66044334046803,-109.8064337330785L-9.283082561026266,-112.23324638425224L-6.383812729572798,-106.09930833739334z" style="fill:rgb(115,34,214)"/><path d="M-54.68380295241755,-82.49605093898174L-57.83694681918942,-88.49569740689236L-71.41113154591517,-77.260326855186z" style="fill:rgb(203,77,216)"/><path d="M71.12274231957348,-72.74215159547589L68.62641124884043,-78.72494116000718L54.6887896760693,-82.59855338192952z" style="fill:rgb(51,38,177)"/><path d="M80.55569757169518,-72.4065691953159L86.21507858222857,-96.4045304092895L78.39075520432358,-98.44075006080836zM24.53673464231679,-117.37890523945404L34.038303679240855,-136.10173886795053L24.063567332524972,-135.1922994377745z" style="fill:rgb(83,212,212)"/><path d="M10.66044334046803,-109.8064337330785L7.836924475394896,-115.99381958463856L-9.283082561026266,-112.23324638425224z" style="fill:rgb(115,34,214)"/><path d="M-98.04937694935256,-38.257749689570794L-88.90923965133712,-84.0274200316386L-94.11455863009772,-78.50346707893365z" style="fill:rgb(83,212,212)"/><path d="M-76.19507503418185,-1.0430191339004646L-79.46883091889919,-6.617751372611753L-82.13141295736318,6.750454647858509z" style="fill:rgb(246,149,167)"/><path d="M80.55569757169518,-72.4065691953159L87.00017543141485,-96.01048621854046L86.21507858222857,-96.4045304092895z" style="fill:rgb(83,212,212)"/><path d="M-68.17114273816269,-71.29313379719129L-71.41113154591517,-77.260326855186L-82.90624290717021,-64.88511474412367z" style="fill:rgb(220,94,208)"/><path d="M68.62641124884043,-78.72494116000718L80.55569757169518,-72.4065691953159L78.39075520432358,-98.44075006080836zM7.836924475394896,-115.99381958463856L24.53673464231679,-117.37890523945404L24.063567332524972,-135.1922994377745zM-91.90807411095838,-51.74559214267389L-82.90624290717021,-64.88511474412367L-80.6927722239446,-90.94901433234747z" style="fill:rgb(83,212,212)"/><path d="M-68.17114273816269,-71.29313379719129L-82.90624290717021,-64.88511474412367L-79.58206830644089,-58.94303502821003z" style="fill:rgb(220,94,208)"/><path d="M24.53673464231679,-117.37890523945404L39.41324677763773,-135.79355355284943L34.038303679240855,-136.10173886795053z" style="fill:rgb(83,212,212)"/><path d="M27.292087945671927,-111.13630486966227L7.836924475394896,-115.99381958463856L10.66044334046803,-109.8064337330785z" style="fill:rgb(92,32,204)"/><path d="M-76.19507503418185,-1.0430191339004646L-82.13141295736318,6.750454647858509L-78.80400782392422,12.320185399637948z" style="fill:rgb(246,149,167)"/><path d="M83.01853099242459,-66.38364601123641L68.62641124884043,-78.72494116000718L71.12274231957348,-72.74215159547589z" style="fill:rgb(34,46,160)"/><path d="M-107.16886048384418,30.06756251961918L-103.77546602787288,-3.8504115449620717L-107.57892358994414,13.39279464013088zM-101.02455291840828,-24.874717010201376L-94.11455863009772,-78.50346707893365L-95.87951518577681,-76.63049023514372z" style="fill:rgb(83,212,212)"/><path d="M27.292087945671927,-111.13630486966227L24.53673464231679,-117.37890523945404L7.836924475394896,-115.99381958463856z" style="fill:rgb(92,32,204)"/><path d="M89.96692552623503,-63.78189044671803L92.48271833902155,-93.25874030406355L87.00017543141485,-96.01048621854046z" style="fill:rgb(83,212,212)"/><path d="M83.01853099242459,-66.38364601123641L80.55569757169518,-72.4065691953159L68.62641124884043,-78.72494116000718z" style="fill:rgb(34,46,160)"/><path d="M-79.58206830644089,-58.94303502821003L-82.90624290717021,-64.88511474412367L-91.90807411095838,-51.74559214267389z" style="fill:rgb(233,112,197)"/><path d="M40.26240881854425,-116.28828803933862L53.14696836219644,-135.00613516384556L39.41324677763773,-135.79355355284943zM-98.04937694935256,-38.257749689570794L-91.90807411095838,-51.74559214267389L-88.90923965133712,-84.0274200316386zM24.53673464231679,-117.37890523945404L40.26240881854425,-116.28828803933862L39.41324677763773,-135.79355355284943z" style="fill:rgb(83,212,212)"/><path d="M-79.58206830644089,-58.94303502821003L-91.90807411095838,-51.74559214267389L-88.50499138131389,-45.82086862008862z" style="fill:rgb(233,112,197)"/><path d="M42.95910637047367,-109.99072190026249L24.53673464231679,-117.37890523945404L27.292087945671927,-111.13630486966227z" style="fill:rgb(71,33,192)"/><path d="M-127.03740848622816,-1.1755427611550486L-95.87951518577681,-76.63049023514372L-102.96419324092366,-69.11215519081384zM80.55569757169518,-72.4065691953159L89.96692552623503,-63.78189044671803L87.00017543141485,-96.01048621854046z" style="fill:rgb(83,212,212)"/><path d="M-78.80400782392422,12.320185399637948L-82.13141295736318,6.750454647858509L-81.4809036674961,19.57474593248616z" style="fill:rgb(246,167,149)"/><path d="M96.40240819482823,-53.08573238791477L94.34790295828626,-92.32260576374932L92.48271833902155,-93.25874030406355z" style="fill:rgb(83,212,212)"/><path d="M-78.80400782392422,12.320185399637948L-81.4809036674961,19.57474593248616L-78.1137404910807,25.14703805497109z" style="fill:rgb(246,167,149)"/><path d="M92.41085566337642,-57.726355290036864L80.55569757169518,-72.4065691953159L83.01853099242459,-66.38364601123641z" style="fill:rgb(21,57,142)"/><path d="M42.95910637047367,-109.99072190026249L40.26240881854425,-116.28828803933862L24.53673464231679,-117.37890523945404z" style="fill:rgb(71,33,192)"/><path d="M-127.03740848622816,-1.1755427611550486L-102.96419324092366,-69.11215519081384L-114.70195481736056,-52.36931627049245zM54.45613945697446,-112.6858825781633L54.27530775465275,-134.9414352889221L53.14696836219644,-135.00613516384556zM-107.16886048384418,30.06756251961918L-87.12040602468196,70.4021253489858L-78.06648156003732,-45.111650064205065zM-101.02455291840828,-24.874717010201376L-98.04937694935256,-38.257749689570794L-94.11455863009772,-78.50346707893365z" style="fill:rgb(83,212,212)"/><path d="M-88.50499138131389,-45.82086862008862L-91.90807411095838,-51.74559214267389L-98.04937694935256,-38.257749689570794z" style="fill:rgb(242,130,183)"/><path d="M54.45613945697446,-112.6858825781633L64.72687043034799,-132.47534944063986L54.27530775465275,-134.9414352889221zM40.26240881854425,-116.28828803933862L54.45613945697446,-112.6858825781633L53.14696836219644,-135.00613516384556z" style="fill:rgb(83,212,212)"/><path d="M-88.50499138131389,-45.82086862008862L-98.04937694935256,-38.257749689570794L-94.57554925571381,-32.34232492771929z" style="fill:rgb(242,130,183)"/><path d="M57.10568436251806,-106.33588832403125L40.26240881854425,-116.28828803933862L42.95910637047367,-109.99072190026249z" style="fill:rgb(51,38,177)"/><path d="M92.41085566337642,-57.726355290036864L89.96692552623503,-63.78189044671803L80.55569757169518,-72.4065691953159z" style="fill:rgb(21,57,142)"/><path d="M89.96692552623503,-63.78189044671803L96.40240819482823,-53.08573238791477L92.48271833902155,-93.25874030406355zM-127.03740848622816,-1.1755427611550486L-114.70195481736056,-52.36931627049245L-122.89469709780433,-35.088198849487085z" style="fill:rgb(83,212,212)"/><path d="M-78.1137404910807,25.14703805497109L-81.4809036674961,19.57474593248616L-77.41143512473445,31.3543820042832z" style="fill:rgb(242,183,130)"/><path d="M57.10568436251806,-106.33588832403125L54.45613945697446,-112.6858825781633L40.26240881854425,-116.28828803933862z" style="fill:rgb(51,38,177)"/><path d="M66.5693414669393,-106.61058863896497L72.69946726356655,-130.5941823506202L64.72687043034799,-132.47534944063986z" style="fill:rgb(83,212,212)"/><path d="M-78.1137404910807,25.14703805497109L-77.41143512473445,31.3543820042832L-74.02116424499626,36.93704575292009z" style="fill:rgb(242,183,130)"/><path d="M98.84386050610803,-47.00717985902882L89.96692552623503,-63.78189044671803L92.41085566337642,-57.726355290036864z" style="fill:rgb(12,71,124)"/><path d="M-94.57554925571381,-32.34232492771929L-98.04937694935256,-38.257749689570794L-101.02455291840828,-24.874717010201376z" style="fill:rgb(246,149,167)"/><path d="M66.5693414669393,-106.61058863896497L73.49694341502317,-130.21670715545307L72.69946726356655,-130.5941823506202zM54.45613945697446,-112.6858825781633L66.5693414669393,-106.61058863896497L64.72687043034799,-132.47534944063986z" style="fill:rgb(83,212,212)"/><path d="M-94.57554925571381,-32.34232492771929L-101.02455291840828,-24.874717010201376L-97.49123592207275,-18.960310420766913z" style="fill:rgb(246,149,167)"/><path d="M69.18530734447154,-100.21316526723407L54.45613945697446,-112.6858825781633L57.10568436251806,-106.33588832403125z" style="fill:rgb(34,46,160)"/><path d="M96.40240819482823,-53.08573238791477L99.48567296986828,-40.6554667355593L94.34790295828626,-92.32260576374932zM-127.03740848622816,-1.1755427611550486L-122.89469709780433,-35.088198849487085L-127.1196917376926,-17.821547623285454zM-87.12040602468196,70.4021253489858L-81.4809036674961,19.57474593248616L-82.13141295736318,6.750454647858509z" style="fill:rgb(83,212,212)"/><path d="M98.84386050610803,-47.00717985902882L96.40240819482823,-53.08573238791477L89.96692552623503,-63.78189044671803z" style="fill:rgb(12,71,124)"/><path d="M76.08124106795574,-98.18767165026466L79.06697507780355,-127.58015759938621L73.49694341502317,-130.21670715545307z" style="fill:rgb(83,212,212)"/><path d="M69.18530734447154,-100.21316526723407L66.5693414669393,-106.61058863896497L54.45613945697446,-112.6858825781633z" style="fill:rgb(34,46,160)"/><path d="M66.5693414669393,-106.61058863896497L76.08124106795574,-98.18767165026466L73.49694341502317,-130.21670715545307zM-107.16886048384418,30.06756251961918L-102.34583545659974,45.526842369447266L-87.12040602468196,70.4021253489858z" style="fill:rgb(83,212,212)"/><path d="M-97.49123592207275,-18.960310420766913L-101.02455291840828,-24.874717010201376L-100.60878526001662,-12.079862511634087z" style="fill:rgb(246,167,149)"/><path d="M105.82332211830318,23.078053279318333L101.86687706317142,-88.5487605854094L94.34790295828626,-92.32260576374932zM-85.57886817733294,72.92069495075327L-77.41143512473445,31.3543820042832L-81.4809036674961,19.57474593248616zM82.52385021230229,-87.63956980792803L80.96235428170952,-126.68301010204996L79.06697507780355,-127.58015759938621z" style="fill:rgb(83,212,212)"/><path d="M-97.49123592207275,-18.960310420766913L-100.60878526001662,-12.079862511634087L-97.03040419920339,-6.158025468239487z" style="fill:rgb(246,167,149)"/><path d="M78.67923781781828,-91.75037850954463L66.5693414669393,-106.61058863896497L69.18530734447154,-100.21316526723407z" style="fill:rgb(21,57,142)"/><path d="M-127.03740848622816,-1.1755427611550486L-107.3605024069093,38.8608569261413L-95.87951518577681,-76.63049023514372z" style="fill:rgb(83,212,212)"/><path d="M125.49571014959224,-57.87442518865154L123.19679786645587,-64.03049361625081L127.6885836135698,-48.01702670179311z" style="fill:rgb(246,167,149)"/><path d="M105.82332211830318,23.078053279318333L114.40595749658274,-77.67278795733496L101.86687706317142,-88.5487605854094z" style="fill:rgb(83,212,212)"/><path d="M78.67923781781828,-91.75037850954463L76.08124106795574,-98.18767165026466L66.5693414669393,-106.61058863896497z" style="fill:rgb(21,57,142)"/><path d="M125.49571014959224,-57.87442518865154L127.6885836135698,-48.01702670179311L130.00230594573105,-41.843877183724885z" style="fill:rgb(246,167,149)"/><path d="M76.08124106795574,-98.18767165026466L82.52385021230229,-87.63956980792803L79.06697507780355,-127.58015759938621zM-87.12040602468196,70.4021253489858L-85.57886817733294,72.92069495075327L-81.4809036674961,19.57474593248616zM-80.95678325255881,80.47223579354389L-69.9417366771271,41.588029280154785L-77.41143512473445,31.3543820042832z" style="fill:rgb(83,212,212)"/><path d="M-97.03040419920339,-6.158025468239487L-100.60878526001662,-12.079862511634087L-96.68018105979185,-0.37486697308262446zM-97.03040419920339,-6.158025468239487L-96.68018105979185,-0.37486697308262446L-93.07421208921681,5.562969669526646z" style="fill:rgb(242,183,130)"/><path d="M85.12141853628486,-81.17233057761985L76.08124106795574,-98.18767165026466L78.67923781781828,-91.75037850954463z" style="fill:rgb(12,71,124)"/><path d="M105.82332211830318,23.078053279318333L123.19679786645587,-64.03049361625081L114.40595749658274,-77.67278795733496zM-85.57886817733294,72.92069495075327L-80.95678325255881,80.47223579354389L-77.41143512473445,31.3543820042832zM82.52385021230229,-87.63956980792803L85.51232068804374,-75.29316430842485L80.96235428170952,-126.68301010204996zM-107.3605024069093,38.8608569261413L-100.60878526001662,-12.079862511634087L-101.02455291840828,-24.874717010201376z" style="fill:rgb(83,212,212)"/><path d="M130.00230594573105,-41.843877183724885L127.6885836135698,-48.01702670179311L127.46520085319385,-30.177359875361994z" style="fill:rgb(246,149,167)"/><path d="M85.12141853628486,-81.17233057761985L82.52385021230229,-87.63956980792803L76.08124106795574,-98.18767165026466z" style="fill:rgb(12,71,124)"/><path d="M130.00230594573105,-41.843877183724885L127.46520085319385,-30.177359875361994L129.8187187083002,-24.004224472033666z" style="fill:rgb(246,149,167)"/><path d="M-73.2653854123562,93.03842742017792L-59.23530046163179,49.79779248832336L-69.9417366771271,41.588029280154785zM-127.03740848622816,-1.1755427611550486L-122.42458822159097,14.200896708150436L-107.3605024069093,38.8608569261413zM105.82332211830318,23.078053279318333L127.6885836135698,-48.01702670179311L123.19679786645587,-64.03049361625081zM91.14565365203647,-11.667176541479957L88.60525785673892,-123.0652800016055L80.96235428170952,-126.68301010204996zM-105.83362840746453,41.36036472545167L-96.68018105979185,-0.37486697308262446L-100.60878526001662,-12.079862511634087zM-80.95678325255881,80.47223579354389L-73.2653854123562,93.03842742017792L-69.9417366771271,41.588029280154785z" style="fill:rgb(83,212,212)"/><path d="M112.57351929632262,-92.47772686051846L110.12718411918837,-99.02856652332876L114.52614538827089,-83.13521444027059z" style="fill:rgb(246,167,149)"/><path d="M104.1694728874492,26.51913281109395L99.48567296986828,-40.6554667355593L98.95429623458686,-26.93135806823431z" style="fill:rgb(83,212,212)"/><path d="M129.8187187083002,-24.004224472033666L127.46520085319385,-30.177359875361994L122.29912903870004,-11.202225198132059z" style="fill:rgb(242,130,183)"/><path d="M91.14565365203647,-11.667176541479957L101.29835409980225,-112.46489187464378L88.60525785673892,-123.0652800016055z" style="fill:rgb(83,212,212)"/><path d="M112.57351929632262,-92.47772686051846L114.52614538827089,-83.13521444027059L116.99097221404539,-76.5589118044331z" style="fill:rgb(246,167,149)"/><path d="M129.8187187083002,-24.004224472033666L122.29912903870004,-11.202225198132059L124.71831390648876,-5.04702227789545z" style="fill:rgb(242,130,183)"/><path d="M-62.53512739932356,110.56948330301253L-45.615205717658384,55.558991360457874L-59.23530046163179,49.79779248832336zM105.82332211830318,23.078053279318333L127.46520085319385,-30.177359875361994L127.6885836135698,-48.01702670179311zM-107.3605024069093,38.8608569261413L-105.83362840746453,41.36036472545167L-100.60878526001662,-12.079862511634087zM-101.25366911054404,48.85776860344145L-89.24362639540449,9.738382673153016L-96.68018105979185,-0.37486697308262446zM99.22621796956803,36.80428328959702L98.95429623458686,-26.93135806823431L94.69237219315924,-12.44809595028332zM-73.2653854123562,93.03842742017792L-62.53512739932356,110.56948330301253L-59.23530046163179,49.79779248832336zM91.14565365203647,-11.667176541479957L110.12718411918837,-99.02856652332876L101.29835409980225,-112.46489187464378zM-105.83362840746453,41.36036472545167L-101.25366911054404,48.85776860344145L-96.68018105979185,-0.37486697308262446zM105.82332211830318,23.078053279318333L122.29912903870004,-11.202225198132059L127.46520085319385,-30.177359875361994z" style="fill:rgb(83,212,212)"/><path d="M116.99097221404539,-76.5589118044331L114.52614538827089,-83.13521444027059L114.06787320883994,-65.31775562445493z" style="fill:rgb(246,149,167)"/><path d="M104.1694728874492,26.51913281109395L105.82332211830318,23.078053279318333L99.48567296986828,-40.6554667355593z" style="fill:rgb(83,212,212)"/><path d="M116.99097221404539,-76.5589118044331L114.06787320883994,-65.31775562445493L116.57778675137934,-58.73440690394364z" style="fill:rgb(246,149,167)"/><path d="M-48.83436851045273,132.9537476114182L-29.56849437541261,58.53287985263015L-45.615205717658384,55.558991360457874zM91.05177510469306,53.81239394690004L94.69237219315924,-12.44809595028332L86.75848791260104,2.1841301511249918zM-93.62621700757433,61.34394745159844L-78.45273641307679,17.782220020801258L-89.24362639540449,9.738382673153016zM99.22621796956803,36.80428328959702L104.1694728874492,26.51913281109395L98.95429623458686,-26.93135806823431zM91.14565365203647,-11.667176541479957L114.52614538827089,-83.13521444027059L110.12718411918837,-99.02856652332876zM-101.25366911054404,48.85776860344145L-93.62621700757433,61.34394745159844L-89.24362639540449,9.738382673153016zM-62.53512739932356,110.56948330301253L-48.83436851045273,132.9537476114182L-45.615205717658384,55.558991360457874zM79.75367161192119,77.31970503892742L86.75848791260104,2.1841301511249918L75.40315803023603,16.30968644153241zM89.40010432134106,-8.191613683544562L85.51232068804374,-75.29316430842485L84.77919890753556,-61.581363936933975z" style="fill:rgb(83,212,212)"/><path d="M116.57778675137934,-58.73440690394364L114.06787320883994,-65.31775562445493L108.51994400939114,-46.261033125064564z" style="fill:rgb(242,130,183)"/><path d="M91.05177510469306,53.81239394690004L99.22621796956803,36.80428328959702L94.69237219315924,-12.44809595028332z" style="fill:rgb(83,212,212)"/><path d="M116.57778675137934,-58.73440690394364L108.51994400939114,-46.261033125064564L111.10242718267875,-39.690316097223814z" style="fill:rgb(242,130,183)"/><path d="M-32.235687583311226,157.72555073473444L-11.736899016558265,58.49939252430315L-29.56849437541261,58.53287985263015zM-82.97232481579522,78.78438990148037L-64.62648974278767,23.333534538550715L-78.45273641307679,17.782220020801258zM91.14565365203647,-11.667176541479957L114.06787320883994,-65.31775562445493L114.52614538827089,-83.13521444027059zM65.50456061186513,106.96703076401099L75.40315803023603,16.30968644153241L61.071353791653465,29.267215681540122zM84.18111857761585,2.1998816811014925L84.77919890753556,-61.581363936933975L80.20848951149601,-47.03573968686734z" style="fill:rgb(83,212,212)"/><path d="M124.71831390648876,-5.04702227789545L122.29912903870004,-11.202225198132059L52.35346959108966,134.32977129700626z" style="fill:rgb(234,115,195)"/><path d="M-12.785563193943487,156.74749653639387L7.109188215381426,55.38446749995304L-11.736899016558265,58.49939252430315zM-93.62621700757433,61.34394745159844L-82.97232481579522,78.78438990148037L-78.45273641307679,17.782220020801258zM79.75367161192119,77.31970503892742L91.05177510469306,53.81239394690004L86.75848791260104,2.1841301511249918zM91.14565365203647,-11.667176541479957L108.51994400939114,-46.261033125064564L114.06787320883994,-65.31775562445493zM7.737191138469398,152.2458694584198L26.11286056946417,49.277624408242914L7.109188215381426,55.38446749995304zM89.40010432134106,-8.191613683544562L91.14565365203647,-11.667176541479957L85.51232068804374,-75.29316430842485zM28.469845402328218,147.69820123022987L44.38599915078599,40.435131907431256L26.11286056946417,49.277624408242914zM48.470284509966845,139.95674660723697L61.071353791653465,29.267215681540122L44.38599915078599,40.435131907431256zM-48.83436851045273,132.9537476114182L-32.235687583311226,157.72555073473444L-29.56849437541261,58.53287985263015zM-69.34727441740118,101.08864963978891L-48.25519773901648,26.057235801657935L-64.62648974278767,23.333534538550715zM75.54529474718085,19.39462041728949L80.20848951149601,-47.03573968686734L71.86509416096217,-32.268353546369646zM84.18111857761585,2.1998816811014925L89.40010432134106,-8.191613683544562L84.77919890753556,-61.581363936933975zM65.50456061186513,106.96703076401099L79.75367161192119,77.31970503892742L75.40315803023603,16.30968644153241zM-82.97232481579522,78.78438990148037L-69.34727441740118,101.08864963978891L-64.62648974278767,23.333534538550715zM63.59840778596291,43.18200594902948L71.86509416096217,-32.268353546369646L60.01324980899521,-17.94188365413338zM75.54529474718085,19.39462041728949L84.18111857761585,2.1998816811014925L80.20848951149601,-47.03573968686734zM-32.235687583311226,157.72555073473444L-12.785563193943487,156.74749653639387L-11.736899016558265,58.49939252430315zM-52.76524939213953,125.79798796057418L-29.992183630792095,25.739667392042275L-48.25519773901648,26.057235801657935z" style="fill:rgb(83,212,212)"/><path d="M124.71831390648876,-5.04702227789545L52.35346959108966,134.32977129700626L55.46324753063039,140.16227462816155z" style="fill:rgb(234,115,195)"/><path d="M-12.785563193943487,156.74749653639387L7.737191138469398,152.2458694584198L7.109188215381426,55.38446749995304zM48.470284509966845,139.95674660723697L65.50456061186513,106.96703076401099L61.071353791653465,29.267215681540122zM48.5126199368862,73.21924162092003L60.01324980899521,-17.94188365413338L45.11912452755733,-4.729420249306977z" style="fill:rgb(83,212,212)"/><path d="M111.10242718267875,-39.690316097223814L108.51994400939114,-46.261033125064564L34.571065642935196,100.97820108481918z" style="fill:rgb(234,115,195)"/><path d="M-32.769486163611575,124.53150975480813L-10.627746041662226,22.316419357255814L-29.992183630792095,25.739667392042275zM-48.83436851045273,132.9537476114182L-36.020129638724825,153.88962311311667L-34.717977779712534,155.81904149194648zM7.737191138469398,152.2458694584198L28.469845402328218,147.69820123022987L26.11286056946417,49.277624408242914zM63.59840778596291,43.18200594902948L75.54529474718085,19.39462041728949L71.86509416096217,-32.268353546369646zM-48.83436851045273,132.9537476114182L-34.717977779712534,155.81904149194648L-32.927498969605914,157.37526115471982zM-48.83436851045273,132.9537476114182L-32.927498969605914,157.37526115471982L-32.235687583311226,157.72555073473444zM28.469845402328218,147.69820123022987L48.470284509966845,139.95674660723697L44.38599915078599,40.435131907431256z" style="fill:rgb(83,212,212)"/><path d="M-31.119147228788048,161.4036224146972L-36.020129638724825,153.88962311311667L-32.42098855623772,159.47410727890593z" style="fill:rgb(21,57,142)"/><path d="M-11.600930851973471,119.69520060456242L8.95414153206849,15.889943931421648L-10.627746041662226,22.316419357255814z" style="fill:rgb(83,212,212)"/><path d="M-29.33246309906328,162.96166997764192L-34.717977779712534,155.81904149194648L-31.119147228788048,161.4036224146972z" style="fill:rgb(34,46,160)"/><path d="M-31.119147228788048,161.4036224146972L-34.717977779712534,155.81904149194648L-36.020129638724825,153.88962311311667z" style="fill:rgb(21,57,142)"/><path d="M9.792095395496,114.80760714567084L27.83342857083319,6.732180384169453L8.95414153206849,15.889943931421648zM30.4890396912664,106.7083277235885L45.11912452755733,-4.729420249306977L27.83342857083319,6.732180384169453z" style="fill:rgb(83,212,212)"/><path d="M-27.127659417679645,164.08521319270864L-32.927498969605914,157.37526115471982L-29.33246309906328,162.96166997764192z" style="fill:rgb(51,38,177)"/><path d="M-69.34727441740118,101.08864963978891L-52.76524939213953,125.79798796057418L-48.25519773901648,26.057235801657935z" style="fill:rgb(83,212,212)"/><path d="M-29.33246309906328,162.96166997764192L-32.927498969605914,157.37526115471982L-34.717977779712534,155.81904149194648z" style="fill:rgb(34,46,160)"/><path d="M-24.588826520963398,164.72770678388886L-30.71552083112412,158.4952829093046L-27.127659417679645,164.08521319270864z" style="fill:rgb(71,33,192)"/><path d="M-27.127659417679645,164.08521319270864L-30.71552083112412,158.4952829093046L-32.927498969605914,157.37526115471982z" style="fill:rgb(51,38,177)"/><path d="M-21.814357001322936,164.86150457933084L-28.166393873450932,159.13267136922659L-24.588826520963398,164.72770678388886z" style="fill:rgb(92,32,204)"/><path d="M-24.588826520963398,164.72770678388886L-28.166393873450932,159.13267136922659L-30.71552083112412,158.4952829093046z" style="fill:rgb(71,33,192)"/><path d="M-18.913124680028943,164.47934398916513L-25.37890928648942,159.259953960233L-21.814357001322936,164.86150457933084z" style="fill:rgb(115,34,214)"/><path d="M-32.235687583311226,157.72555073473444L-30.71552083112412,158.4952829093046L-28.166393873450932,159.13267136922659z" style="fill:rgb(83,212,212)"/><path d="M-21.814357001322936,164.86150457933084L-25.37890928648942,159.259953960233L-28.166393873450932,159.13267136922659z" style="fill:rgb(92,32,204)"/><path d="M-32.235687583311226,157.72555073473444L-28.166393873450932,159.13267136922659L-25.37890928648942,159.259953960233z" style="fill:rgb(83,212,212)"/><path d="M-18.913124680028943,164.47934398916513L-22.46245823469933,158.87010877455802L-25.37890928648942,159.259953960233z" style="fill:rgb(115,34,214)"/><path d="M48.5126199368862,73.21924162092003L63.59840778596291,43.18200594902948L60.01324980899521,-17.94188365413338zM-32.235687583311226,157.72555073473444L-25.37890928648942,159.259953960233L-22.46245823469933,158.87010877455802zM-32.235687583311226,157.72555073473444L-22.46245823469933,158.87010877455802L-12.785563193943487,156.74749653639387z" style="fill:rgb(83,212,212)"/><path d="M41.60367469114804,151.30108643814447L-22.46245823469933,158.87010877455802L-18.913124680028943,164.47934398916513z" style="fill:rgb(127,37,217)"/><path d="M-52.76524939213953,125.79798796057418L-32.769486163611575,124.53150975480813L-29.992183630792095,25.739667392042275zM48.470284509966845,139.95674660723697L52.35346959108966,134.32977129700626L65.50456061186513,106.96703076401099z" style="fill:rgb(83,212,212)"/><path d="M41.60367469114804,151.30108643814447L38.39355432803742,145.52145261492277L-22.46245823469933,158.87010877455802z" style="fill:rgb(127,37,217)"/><path d="M55.46324753063039,140.16227462816155L51.02383214557818,136.88908096904348L54.14698977582686,142.71414121710802z" style="fill:rgb(233,112,197)"/><path d="M54.14698977582686,142.71414121710802L49.18373143237017,139.28678556589895L52.32248960611978,145.10335988139772z" style="fill:rgb(220,94,208)"/><path d="M55.46324753063039,140.16227462816155L52.35346959108966,134.32977129700626L51.02383214557818,136.88908096904348z" style="fill:rgb(233,112,197)"/><path d="M52.32248960611978,145.10335988139772L46.90430187878397,141.4272966929376L50.060268667882305,147.23469709756046z" style="fill:rgb(203,77,216)"/><path d="M44.59235717969629,150.39653352063885L38.39355432803742,145.52145261492277L41.60367469114804,151.30108643814447z" style="fill:rgb(139,40,220)"/><path d="M50.060268667882305,147.23469709756046L44.27500687913819,143.2249804576065L47.449095620850805,149.02290323120062z" style="fill:rgb(183,62,221)"/><path d="M47.449095620850805,149.02290323120062L41.39996317208095,144.60799790088564L44.59235717969629,150.39653352063885z" style="fill:rgb(162,50,222)"/><path d="M54.14698977582686,142.71414121710802L51.02383214557818,136.88908096904348L49.18373143237017,139.28678556589895z" style="fill:rgb(220,94,208)"/><path d="M111.10242718267875,-39.690316097223814L34.571065642935196,100.97820108481918L37.91290647937574,107.24594704709835z" style="fill:rgb(234,115,195)"/><path d="M52.32248960611978,145.10335988139772L49.18373143237017,139.28678556589895L46.90430187878397,141.4272966929376z" style="fill:rgb(203,77,216)"/><path d="M44.59235717969629,150.39653352063885L41.39996317208095,144.60799790088564L38.39355432803742,145.52145261492277z" style="fill:rgb(139,40,220)"/><path d="M48.470284509966845,139.95674660723697L51.02383214557818,136.88908096904348L52.35346959108966,134.32977129700626z" style="fill:rgb(83,212,212)"/><path d="M50.060268667882305,147.23469709756046L46.90430187878397,141.4272966929376L44.27500687913819,143.2249804576065z" style="fill:rgb(183,62,221)"/><path d="M-32.769486163611575,124.53150975480813L-11.600930851973471,119.69520060456242L-10.627746041662226,22.316419357255814z" style="fill:rgb(83,212,212)"/><path d="M47.449095620850805,149.02290323120062L44.27500687913819,143.2249804576065L41.39996317208095,144.60799790088564z" style="fill:rgb(162,50,222)"/><path d="M30.4890396912664,106.7083277235885L48.5126199368862,73.21924162092003L45.11912452755733,-4.729420249306977zM48.470284509966845,139.95674660723697L49.18373143237017,139.28678556589895L51.02383214557818,136.88908096904348zM28.469845402328218,147.69820123022987L46.90430187878397,141.4272966929376L48.470284509966845,139.95674660723697zM28.469845402328218,147.69820123022987L38.39355432803742,145.52145261492277L41.39996317208095,144.60799790088564zM28.469845402328218,147.69820123022987L44.27500687913819,143.2249804576065L46.90430187878397,141.4272966929376zM28.469845402328218,147.69820123022987L41.39996317208095,144.60799790088564L44.27500687913819,143.2249804576065zM-69.34727441740118,101.08864963978891L-56.581672073519336,121.98599679081478L-55.279682215989666,123.91188481702335zM-11.600930851973471,119.69520060456242L9.792095395496,114.80760714567084L8.95414153206849,15.889943931421648zM-69.34727441740118,101.08864963978891L-55.279682215989666,123.91188481702335L-53.46932859928624,125.45481609981707zM-69.34727441740118,101.08864963978891L-53.46932859928624,125.45481609981707L-52.76524939213953,125.79798796057418zM9.792095395496,114.80760714567084L30.4890396912664,106.7083277235885L27.83342857083319,6.732180384169453z" style="fill:rgb(83,212,212)"/><path d="M-51.41776523279938,129.90471215892308L-56.581672073519336,121.98599679081478L-52.72003462839652,127.97777453970929z" style="fill:rgb(21,57,142)"/><path d="M-49.61090671065998,131.450507917711L-55.279682215989666,123.91188481702335L-51.41776523279938,129.90471215892308z" style="fill:rgb(34,46,160)"/><path d="M-51.41776523279938,129.90471215892308L-55.279682215989666,123.91188481702335L-56.581672073519336,121.98599679081478z" style="fill:rgb(21,57,142)"/><path d="M-47.366769303302874,132.55242476586557L-53.46932859928624,125.45481609981707L-49.61090671065998,131.450507917711z" style="fill:rgb(51,38,177)"/><path d="M-49.61090671065998,131.450507917711L-53.46932859928624,125.45481609981707L-55.279682215989666,123.91188481702335z" style="fill:rgb(34,46,160)"/><path d="M-44.770854167837776,133.16459333344864L-51.21801940139159,126.55213170041932L-47.366769303302874,132.55242476586557z" style="fill:rgb(71,33,192)"/><path d="M-47.366769303302874,132.55242476586557L-51.21801940139159,126.55213170041932L-53.46932859928624,125.45481609981707z" style="fill:rgb(51,38,177)"/><path d="M-41.92374109688455,133.2604120600335L-48.61150760016001,127.15810939290812L-44.770854167837776,133.16459333344864z" style="fill:rgb(92,32,204)"/><path d="M-44.770854167837776,133.16459333344864L-48.61150760016001,127.15810939290812L-51.21801940139159,126.55213170041932z" style="fill:rgb(71,33,192)"/><path d="M-38.93720321129258,132.83401562760017L-45.750788497308,127.24636338293L-41.92374109688455,133.2604120600335z" style="fill:rgb(115,34,214)"/><path d="M-52.76524939213953,125.79798796057418L-51.21801940139159,126.55213170041932L-48.61150760016001,127.15810939290812z" style="fill:rgb(83,212,212)"/><path d="M-41.92374109688455,133.2604120600335L-45.750788497308,127.24636338293L-48.61150760016001,127.15810939290812z" style="fill:rgb(92,32,204)"/><path d="M-52.76524939213953,125.79798796057418L-48.61150760016001,127.15810939290812L-45.750788497308,127.24636338293z" style="fill:rgb(83,212,212)"/><path d="M-38.93720321129258,132.83401562760017L-42.74816856908382,126.81129692046892L-45.750788497308,127.24636338293z" style="fill:rgb(115,34,214)"/><path d="M-52.76524939213953,125.79798796057418L-45.750788497308,127.24636338293L-42.74816856908382,126.81129692046892zM-52.76524939213953,125.79798796057418L-42.74816856908382,126.81129692046892L-32.769486163611575,124.53150975480813z" style="fill:rgb(83,212,212)"/><path d="M23.485237761378556,118.67994978958198L-42.74816856908382,126.81129692046892L-38.93720321129258,132.83401562760017z" style="fill:rgb(127,37,217)"/><path d="M30.4890396912664,106.7083277235885L34.571065642935196,100.97820108481918L48.5126199368862,73.21924162092003z" style="fill:rgb(83,212,212)"/><path d="M23.485237761378556,118.67994978958198L20.034727823743193,112.46750509228578L-42.74816856908382,126.81129692046892z" style="fill:rgb(127,37,217)"/><path d="M37.91290647937574,107.24594704709835L33.163720420248495,103.57782840900161L36.52031849986766,109.8382889405253z" style="fill:rgb(233,112,197)"/><path d="M36.52031849986766,109.8382889405253L31.23347086698616,106.02232085166912L34.607136080077936,112.27421857100886z" style="fill:rgb(220,94,208)"/><path d="M37.91290647937574,107.24594704709835L34.571065642935196,100.97820108481918L33.163720420248495,103.57782840900161z" style="fill:rgb(233,112,197)"/><path d="M34.607136080077936,112.27421857100886L28.854999585025237,108.21414897796174L32.24736068964763,114.45654663535477z" style="fill:rgb(203,77,216)"/><path d="M26.573689382919124,117.72457763885897L20.034727823743193,112.46750509228578L23.485237761378556,118.67994978958198z" style="fill:rgb(139,40,220)"/><path d="M32.24736068964763,114.45654663535477L26.121754082774352,110.06550689423858L29.533688404795388,116.29788529680152z" style="fill:rgb(183,62,221)"/><path d="M29.533688404795388,116.29788529680152L23.142101619362215,111.50232635833792L26.573689382919124,117.72457763885897z" style="fill:rgb(162,50,222)"/><path d="M36.52031849986766,109.8382889405253L33.163720420248495,103.57782840900161L31.23347086698616,106.02232085166912z" style="fill:rgb(220,94,208)"/><path d="M34.607136080077936,112.27421857100886L31.23347086698616,106.02232085166912L28.854999585025237,108.21414897796174z" style="fill:rgb(203,77,216)"/><path d="M26.573689382919124,117.72457763885897L23.142101619362215,111.50232635833792L20.034727823743193,112.46750509228578z" style="fill:rgb(139,40,220)"/><path d="M30.4890396912664,106.7083277235885L33.163720420248495,103.57782840900161L34.571065642935196,100.97820108481918z" style="fill:rgb(83,212,212)"/><path d="M32.24736068964763,114.45654663535477L28.854999585025237,108.21414897796174L26.121754082774352,110.06550689423858z" style="fill:rgb(183,62,221)"/><path d="M29.533688404795388,116.29788529680152L26.121754082774352,110.06550689423858L23.142101619362215,111.50232635833792z" style="fill:rgb(162,50,222)"/><path d="M30.4890396912664,106.7083277235885L31.23347086698616,106.02232085166912L33.163720420248495,103.57782840900161zM9.792095395496,114.80760714567084L28.854999585025237,108.21414897796174L30.4890396912664,106.7083277235885zM9.792095395496,114.80760714567084L20.034727823743193,112.46750509228578L23.142101619362215,111.50232635833792zM9.792095395496,114.80760714567084L26.121754082774352,110.06550689423858L28.854999585025237,108.21414897796174zM9.792095395496,114.80760714567084L23.142101619362215,111.50232635833792L26.121754082774352,110.06550689423858z" style="fill:rgb(83,212,212)"/></svg>
