<?xml version="1.0" encoding="UTF-8"?>
<!-- Generated by jsxcad -->
<!DOCTYPE svg PUBLIC "-//W3C//DTD SVG 1.1 Tiny//EN" "http://www.w3.org/Graphics/SVG/1.1/DTD/svg11-tiny.dtd">
<svg viewBox="-250 -250 500 500" width="500" height="500" xmlns="http://www.w3.org/2000/svg"><path d="M-25.292107911013563,-64.10062095509993L-14.028583003159827,-87.36337575476364L-24.826383504001193,-82.09122240639792zM-25.292107911013563,-64.10062095509993L-9.255200682990319,-89.0232121435953L-14.028583003159827,-87.36337575476364zM-40.00317495325357,-54.56254212863859L-24.826383504001193,-82.09122240639792L-34.19322591593135,-77.5177510973329zM-40.00317495325357,-54.56254212863859L-34.19322591593135,-77.5177510973329L-39.20356046650811,-74.2825517579293zM-9.422223090274873,-71.84141874177084L6.9877673693362174,-94.67133407888095L-9.255200682990319,-89.0232121435953zM-53.08828974960001,-43.514537296630266L-39.20356046650811,-74.2825517579293L-51.88675856124634,-66.09296982557234zM7.114238442325413,-77.54169102989394L23.37829736447381,-98.16164463990567L6.9877673693362174,-94.67133407888095zM-64.11056174978634,-31.28715654752011L-51.88675856124634,-66.09296982557234L-52.92127067711318,-65.42497331063667zM-25.292107911013563,-64.10062095509993L-9.422223090274873,-71.84141874177084L-9.255200682990319,-89.0232121435953zM-40.00317495325357,-54.56254212863859L-25.292107911013563,-64.10062095509993L-24.826383504001193,-82.09122240639792zM-64.11056174978634,-31.28715654752011L-52.92127067711318,-65.42497331063667L-62.44953704537087,-57.45057576693299zM-9.422223090274873,-71.84141874177084L7.114238442325413,-77.54169102989394L6.9877673693362174,-94.67133407888095z" style="fill:rgb(83,212,212)"/><path d="M-6.617095273532701,-66.11588316882718L-25.292107911013563,-64.10062095509993L-22.406642222878624,-58.41739756592261z" style="fill:rgb(162,50,222)"/><path d="M-53.08828974960001,-43.514537296630266L-40.00317495325357,-54.56254212863859L-39.20356046650811,-74.2825517579293zM23.8036620966432,-81.00470912140162L28.245539875845893,-99.1981070075786L23.37829736447381,-98.16164463990567z" style="fill:rgb(83,212,212)"/><path d="M-22.406642222878624,-58.41739756592261L-40.00317495325357,-54.56254212863859L-37.03608125755891,-48.91690709154746z" style="fill:rgb(183,62,221)"/><path d="M9.84221394579565,-71.77015635413912L-9.422223090274873,-71.84141874177084L-6.617095273532701,-66.11588316882718z" style="fill:rgb(139,40,220)"/><path d="M-6.617095273532701,-66.11588316882718L-9.422223090274873,-71.84141874177084L-25.292107911013563,-64.10062095509993z" style="fill:rgb(162,50,222)"/><path d="M-22.406642222878624,-58.41739756592261L-25.292107911013563,-64.10062095509993L-40.00317495325357,-54.56254212863859z" style="fill:rgb(183,62,221)"/><path d="M23.8036620966432,-81.00470912140162L39.36454403041844,-100.02569998848496L28.245539875845893,-99.1981070075786zM-72.67060830601669,-18.253397663819356L-62.44953704537087,-57.45057576693299L-69.65250000594466,-51.42226529739284zM-72.67060830601669,-18.253397663819356L-69.65250000594466,-51.42226529739284L-70.36980525076638,-50.63798089110764z" style="fill:rgb(83,212,212)"/><path d="M9.84221394579565,-71.77015635413912L7.114238442325413,-77.54169102989394L-9.422223090274873,-71.84141874177084z" style="fill:rgb(139,40,220)"/><path d="M7.114238442325413,-77.54169102989394L23.8036620966432,-81.00470912140162L23.37829736447381,-98.16164463990567zM-64.11056174978634,-31.28715654752011L-53.08828974960001,-43.514537296630266L-51.88675856124634,-66.09296982557234z" style="fill:rgb(83,212,212)"/><path d="M-37.03608125755891,-48.91690709154746L-53.08828974960001,-43.514537296630266L-50.040321503919316,-37.900985471750865z" style="fill:rgb(203,77,216)"/><path d="M26.459494955216037,-75.18478747085739L7.114238442325413,-77.54169102989394L9.84221394579565,-71.77015635413912z" style="fill:rgb(115,34,214)"/><path d="M-37.03608125755891,-48.91690709154746L-40.00317495325357,-54.56254212863859L-53.08828974960001,-43.514537296630266z" style="fill:rgb(203,77,216)"/><path d="M40.115004765441725,-82.0843809727025L49.1081305073547,-100.750924439466L39.36454403041844,-100.02569998848496z" style="fill:rgb(83,212,212)"/><path d="M26.459494955216037,-75.18478747085739L23.8036620966432,-81.00470912140162L7.114238442325413,-77.54169102989394z" style="fill:rgb(115,34,214)"/><path d="M-78.41742715323694,-4.827361997431859L-70.36980525076638,-50.63798089110764L-75.36409505653948,-45.17726112819791z" style="fill:rgb(83,212,212)"/><path d="M-50.040321503919316,-37.900985471750865L-53.08828974960001,-43.514537296630266L-64.11056174978634,-31.28715654752011z" style="fill:rgb(220,94,208)"/><path d="M23.8036620966432,-81.00470912140162L40.115004765441725,-82.0843809727025L39.36454403041844,-100.02569998848496zM-72.67060830601669,-18.253397663819356L-64.11056174978634,-31.28715654752011L-62.44953704537087,-57.45057576693299z" style="fill:rgb(83,212,212)"/><path d="M-50.040321503919316,-37.900985471750865L-64.11056174978634,-31.28715654752011L-60.98469797670824,-25.699565317174013z" style="fill:rgb(220,94,208)"/><path d="M40.115004765441725,-82.0843809727025L54.36991537328638,-100.33775308612657L49.1081305073547,-100.750924439466z" style="fill:rgb(83,212,212)"/><path d="M42.70551071845954,-76.21526300461476L23.8036620966432,-81.00470912140162L26.459494955216037,-75.18478747085739z" style="fill:rgb(92,32,204)"/><path d="M-81.06273241451771,8.539316116819494L-75.36409505653948,-45.17726112819791L-77.05728627278161,-43.32595364131361z" style="fill:rgb(83,212,212)"/><path d="M42.70551071845954,-76.21526300461476L40.115004765441725,-82.0843809727025L23.8036620966432,-81.00470912140162z" style="fill:rgb(92,32,204)"/><path d="M-60.98469797670824,-25.699565317174013L-64.11056174978634,-31.28715654752011L-72.67060830601669,-18.253397663819356z" style="fill:rgb(233,112,197)"/><path d="M55.50530607308319,-80.69175249882464L67.80971721422786,-99.2824570647082L54.36991537328638,-100.33775308612657zM-78.41742715323694,-4.827361997431859L-72.67060830601669,-18.253397663819356L-70.36980525076638,-50.63798089110764zM40.115004765441725,-82.0843809727025L55.50530607308319,-80.69175249882464L54.36991537328638,-100.33775308612657z" style="fill:rgb(83,212,212)"/><path d="M-60.98469797670824,-25.699565317174013L-72.67060830601669,-18.253397663819356L-69.47231024320368,-12.685191686438284z" style="fill:rgb(233,112,197)"/><path d="M58.039156939814134,-74.774474298622L40.115004765441725,-82.0843809727025L42.70551071845954,-76.21526300461476z" style="fill:rgb(71,33,192)"/><path d="M-106.04537767829311,31.834220661873907L-77.05728627278161,-43.32595364131361L-83.85282084178328,-35.89577101878215zM-43.62201346619496,-100.20325767695773L-31.654834370704847,-123.53635216182154L-42.793035127809475,-118.08406598089408zM-43.62201346619496,-100.20325767695773L-26.74368375390581,-125.28085381965242L-31.654834370704847,-123.53635216182154zM-58.8530751781624,-90.42913309609736L-42.793035127809475,-118.08406598089408L-52.454996322397946,-113.35441405215168zM-58.8530751781624,-90.42913309609736L-52.454996322397946,-113.35441405215168L-57.63897403325874,-110.04120702658699z" style="fill:rgb(83,212,212)"/><path d="M58.039156939814134,-74.774474298622L55.50530607308319,-80.69175249882464L40.115004765441725,-82.0843809727025z" style="fill:rgb(71,33,192)"/><path d="M-106.04537767829311,31.834220661873907L-83.85282084178328,-35.89577101878215L-95.01975760249577,-19.284225494798267zM69.42814811288534,-76.80347174896212L68.91360917835763,-99.19577322399013L67.80971721422786,-99.2824570647082zM-27.242075511596084,-108.2134528936753L-10.029926282148159,-131.21777764608032L-26.74368375390581,-125.28085381965242zM-72.45527842957758,-79.18336783603654L-57.63897403325874,-110.04120702658699L-70.76277178798355,-101.65347936409603zM-81.06273241451771,8.539316116819494L-78.41742715323694,-4.827361997431859L-75.36409505653948,-45.17726112819791z" style="fill:rgb(83,212,212)"/><path d="M-69.47231024320368,-12.685191686438284L-72.67060830601669,-18.253397663819356L-78.41742715323694,-4.827361997431859z" style="fill:rgb(242,130,183)"/><path d="M69.42814811288534,-76.80347174896212L79.16420561348704,-96.5142049860002L68.91360917835763,-99.19577322399013zM-10.217405310069767,-114.20997914752925L6.799192318445909,-135.01735851490298L-10.029926282148159,-131.21777764608032zM55.50530607308319,-80.69175249882464L69.42814811288534,-76.80347174896212L67.80971721422786,-99.2824570647082zM-83.97757299601037,-66.80015667486893L-70.76277178798355,-101.65347936409603L-71.833286717365,-100.96927971803684z" style="fill:rgb(83,212,212)"/><path d="M-69.47231024320368,-12.685191686438284L-78.41742715323694,-4.827361997431859L-75.15481614935712,0.7283923557346218z" style="fill:rgb(242,130,183)"/><path d="M71.91594589483822,-70.84113334821588L55.50530607308319,-80.69175249882464L58.039156939814134,-74.774474298622z" style="fill:rgb(51,38,177)"/><path d="M-43.62201346619496,-100.20325767695773L-27.242075511596084,-108.2134528936753L-26.74368375390581,-125.28085381965242zM-58.8530751781624,-90.42913309609736L-43.62201346619496,-100.20325767695773L-42.793035127809475,-118.08406598089408zM-83.97757299601037,-66.80015667486893L-71.833286717365,-100.96927971803684L-81.73172252219861,-92.85674760405475zM-27.242075511596084,-108.2134528936753L-10.217405310069767,-114.20997914752925L-10.029926282148159,-131.21777764608032z" style="fill:rgb(83,212,212)"/><path d="M-24.251177800572815,-102.10874568648848L-43.62201346619496,-100.20325767695773L-40.54554734583051,-94.14383921562691z" style="fill:rgb(162,50,222)"/><path d="M-72.45527842957758,-79.18336783603654L-58.8530751781624,-90.42913309609736L-57.63897403325874,-110.04120702658699zM-106.04537767829311,31.834220661873907L-95.01975760249577,-19.284225494798267L-102.69323666318732,-2.082228702153933zM6.926978397823728,-117.987853135078L11.797761624619856,-136.1459052441429L6.799192318445909,-135.01735851490298z" style="fill:rgb(83,212,212)"/><path d="M-40.54554734583051,-94.14383921562691L-58.8530751781624,-90.42913309609736L-55.68916100364482,-84.40899343530127z" style="fill:rgb(183,62,221)"/><path d="M-7.3082195460441834,-108.05506076905623L-27.242075511596084,-108.2134528936753L-24.251177800572815,-102.10874568648848z" style="fill:rgb(139,40,220)"/><path d="M-24.251177800572815,-102.10874568648848L-27.242075511596084,-108.2134528936753L-43.62201346619496,-100.20325767695773z" style="fill:rgb(162,50,222)"/><path d="M-40.54554734583051,-94.14383921562691L-43.62201346619496,-100.20325767695773L-58.8530751781624,-90.42913309609736z" style="fill:rgb(183,62,221)"/><path d="M71.91594589483822,-70.84113334821588L69.42814811288534,-76.80347174896212L55.50530607308319,-80.69175249882464z" style="fill:rgb(51,38,177)"/><path d="M6.926978397823728,-117.987853135078L23.1918882536385,-137.19570088933324L11.797761624619856,-136.1459052441429zM-93.00491127272463,-53.65516399248395L-81.73172252219861,-92.85674760405475L-89.21588394357411,-86.7228949045583zM-93.00491127272463,-53.65516399248395L-89.21588394357411,-86.7228949045583L-89.96516134379651,-85.92912197531844z" style="fill:rgb(83,212,212)"/><path d="M-7.3082195460441834,-108.05506076905623L-10.217405310069767,-114.20997914752925L-27.242075511596084,-108.2134528936753z" style="fill:rgb(139,40,220)"/><path d="M-10.217405310069767,-114.20997914752925L6.926978397823728,-117.987853135078L6.799192318445909,-135.01735851490298zM81.34671191111957,-70.47212100917723L86.979981957047,-94.46958506416283L79.16420561348704,-96.5142049860002zM-83.97757299601037,-66.80015667486893L-72.45527842957758,-79.18336783603654L-70.76277178798355,-101.65347936409603z" style="fill:rgb(83,212,212)"/><path d="M-55.68916100364482,-84.40899343530127L-72.45527842957758,-79.18336783603654L-69.20417172937432,-73.195698584304z" style="fill:rgb(203,77,216)"/><path d="M9.760206874275376,-111.77918848310584L-10.217405310069767,-114.20997914752925L-7.3082195460441834,-108.05506076905623z" style="fill:rgb(115,34,214)"/><path d="M-55.68916100364482,-84.40899343530127L-58.8530751781624,-90.42913309609736L-72.45527842957758,-79.18336783603654z" style="fill:rgb(203,77,216)"/><path d="M-75.15481614935712,0.7283923557346218L-78.41742715323694,-4.827361997431859L-81.06273241451771,8.539316116819494z" style="fill:rgb(246,149,167)"/><path d="M81.34671191111957,-70.47212100917723L87.76436909722383,-94.07465274994215L86.979981957047,-94.46958506416283zM69.42814811288534,-76.80347174896212L81.34671191111957,-70.47212100917723L79.16420561348704,-96.5142049860002z" style="fill:rgb(83,212,212)"/><path d="M-75.15481614935712,0.7283923557346218L-81.06273241451771,8.539316116819494L-77.7467908574958,14.089858025411129z" style="fill:rgb(246,149,167)"/><path d="M83.80102198216703,-64.47004190946616L69.42814811288534,-76.80347174896212L71.91594589483822,-70.84113334821588z" style="fill:rgb(34,46,160)"/><path d="M23.648707232216648,-119.3908433346913L33.17966835357858,-138.11592750348035L23.1918882536385,-137.19570088933324z" style="fill:rgb(83,212,212)"/><path d="M9.760206874275376,-111.77918848310584L6.926978397823728,-117.987853135078L-10.217405310069767,-114.20997914752925z" style="fill:rgb(115,34,214)"/><path d="M-99.16910345950055,-40.16447421364829L-89.96516134379651,-85.92912197531844L-95.18260435168872,-80.40175334710685zM-106.04537767829311,31.834220661873907L-102.69323666318732,-2.082228702153933L-106.47337605205264,15.158783772724659z" style="fill:rgb(83,212,212)"/><path d="M-69.20417172937432,-73.195698584304L-72.45527842957758,-79.18336783603654L-83.97757299601037,-66.80015667486893z" style="fill:rgb(220,94,208)"/><path d="M6.926978397823728,-117.987853135078L23.648707232216648,-119.3908433346913L23.1918882536385,-137.19570088933324z" style="fill:rgb(83,212,212)"/><path d="M-69.20417172937432,-73.195698584304L-83.97757299601037,-66.80015667486893L-80.6419121664569,-60.8375449105023z" style="fill:rgb(220,94,208)"/><path d="M-93.00491127272463,-53.65516399248395L-83.97757299601037,-66.80015667486893L-81.73172252219861,-92.85674760405475zM23.648707232216648,-119.3908433346913L38.560968759428555,-137.81393758774507L33.17966835357858,-138.11592750348035z" style="fill:rgb(83,212,212)"/><path d="M26.413609887532736,-113.12660770374585L6.926978397823728,-117.987853135078L9.760206874275376,-111.77918848310584z" style="fill:rgb(92,32,204)"/><path d="M90.75191215105204,-61.836872743010176L93.24182495974452,-91.31673499185992L87.76436909722383,-94.07465274994215z" style="fill:rgb(83,212,212)"/><path d="M83.80102198216703,-64.47004190946616L81.34671191111957,-70.47212100917723L69.42814811288534,-76.80347174896212z" style="fill:rgb(34,46,160)"/><path d="M-102.16355755229533,-26.781284830993823L-95.18260435168872,-80.40175334710685L-96.95168378528443,-78.52760474558946z" style="fill:rgb(83,212,212)"/><path d="M26.413609887532736,-113.12660770374585L23.648707232216648,-119.3908433346913L6.926978397823728,-117.987853135078z" style="fill:rgb(92,32,204)"/><path d="M81.34671191111957,-70.47212100917723L90.75191215105204,-61.836872743010176L87.76436909722383,-94.07465274994215z" style="fill:rgb(83,212,212)"/><path d="M-80.6419121664569,-60.8375449105023L-83.97757299601037,-66.80015667486893L-93.00491127272463,-53.65516399248395z" style="fill:rgb(233,112,197)"/><path d="M-77.7467908574958,14.089858025411129L-81.06273241451771,8.539316116819494L-80.39940224133738,21.364515866337143z" style="fill:rgb(246,167,149)"/><path d="M39.39322487936709,-118.3180827655284L52.311212808836075,-137.04233368264028L38.560968759428555,-137.81393758774507zM-99.16910345950055,-40.16447421364829L-93.00491127272463,-53.65516399248395L-89.96516134379651,-85.92912197531844zM23.648707232216648,-119.3908433346913L39.39322487936709,-118.3180827655284L38.560968759428555,-137.81393758774507z" style="fill:rgb(83,212,212)"/><path d="M-80.6419121664569,-60.8375449105023L-93.00491127272463,-53.65516399248395L-89.589962494887,-47.70978187310169z" style="fill:rgb(233,112,197)"/><path d="M42.099360163762384,-111.99847680237305L23.648707232216648,-119.3908433346913L26.413609887532736,-113.12660770374585z" style="fill:rgb(71,33,192)"/><path d="M-128.23561961291122,-3.059710467145924L-96.95168378528443,-78.52760474558946L-104.05296729572886,-71.0045005997699zM97.1866389185173,-51.13322392722828L95.10525500153092,-90.37851281109216L93.24182495974452,-91.31673499185992z" style="fill:rgb(83,212,212)"/><path d="M-77.7467908574958,14.089858025411129L-80.39940224133738,21.364515866337143L-77.04399061453267,26.917360431921526z" style="fill:rgb(246,167,149)"/><path d="M93.187272165839,-55.80257245318982L81.34671191111957,-70.47212100917723L83.80102198216703,-64.47004190946616z" style="fill:rgb(21,57,142)"/><path d="M-106.04537767829311,31.834220661873907L-85.97778100996443,72.18274180417453L-77.05728627278161,-43.32595364131361z" style="fill:rgb(83,212,212)"/><path d="M42.099360163762384,-111.99847680237305L39.39322487936709,-118.3180827655284L23.648707232216648,-119.3908433346913z" style="fill:rgb(71,33,192)"/><path d="M-128.23561961291122,-3.059710467145924L-104.05296729572886,-71.0045005997699L-115.82366159971707,-54.25487591300189zM53.60208185056691,-114.73274562075865L53.440927458943435,-136.97893210283706L52.311212808836075,-137.04233368264028z" style="fill:rgb(83,212,212)"/><path d="M93.187272165839,-55.80257245318982L90.75191215105204,-61.836872743010176L81.34671191111957,-70.47212100917723z" style="fill:rgb(21,57,142)"/><path d="M-102.16355755229533,-26.781284830993823L-99.16910345950055,-40.16447421364829L-95.18260435168872,-80.40175334710685z" style="fill:rgb(83,212,212)"/><path d="M-89.589962494887,-47.70978187310169L-93.00491127272463,-53.65516399248395L-99.16910345950055,-40.16447421364829z" style="fill:rgb(242,130,183)"/><path d="M53.60208185056691,-114.73274562075865L63.90372319165678,-134.5256815800849L53.440927458943435,-136.97893210283706zM90.75191215105204,-61.836872743010176L97.1866389185173,-51.13322392722828L93.24182495974452,-91.31673499185992zM39.39322487936709,-118.3180827655284L53.60208185056691,-114.73274562075865L52.311212808836075,-137.04233368264028z" style="fill:rgb(83,212,212)"/><path d="M-89.589962494887,-47.70978187310169L-99.16910345950055,-40.16447421364829L-95.68303026785357,-34.228197184857656z" style="fill:rgb(242,130,183)"/><path d="M56.2610064240402,-108.36027172951285L39.39322487936709,-118.3180827655284L42.099360163762384,-111.99847680237305z" style="fill:rgb(51,38,177)"/><path d="M-77.04399061453267,26.917360431921526L-80.39940224133738,21.364515866337143L-76.32245501349776,33.14757270259897z" style="fill:rgb(242,183,130)"/><path d="M-128.23561961291122,-3.059710467145924L-115.82366159971707,-54.25487591300189L-124.04652490812158,-36.970094229848804z" style="fill:rgb(83,212,212)"/><path d="M-77.04399061453267,26.917360431921526L-76.32245501349776,33.14757270259897L-72.9441766032671,38.710488801176375z" style="fill:rgb(242,183,130)"/><path d="M99.61941326996464,-45.07627708797014L90.75191215105204,-61.836872743010176L93.187272165839,-55.80257245318982z" style="fill:rgb(12,71,124)"/><path d="M56.2610064240402,-108.36027172951285L53.60208185056691,-114.73274562075865L39.39322487936709,-118.3180827655284z" style="fill:rgb(51,38,177)"/><path d="M65.72603051015045,-108.67292967251416L71.88509340371881,-132.65425746930794L63.90372319165678,-134.5256815800849zM97.1866389185173,-51.13322392722828L100.27490451619973,-38.69910156452646L95.10525500153092,-90.37851281109216z" style="fill:rgb(83,212,212)"/><path d="M-95.68303026785357,-34.228197184857656L-99.16910345950055,-40.16447421364829L-102.16355755229533,-26.781284830993823z" style="fill:rgb(246,149,167)"/><path d="M65.72603051015045,-108.67292967251416L72.68329424037188,-132.27783360946754L71.88509340371881,-132.65425746930794zM-85.97778100996443,72.18274180417453L-80.39940224133738,21.364515866337143L-81.06273241451771,8.539316116819494zM53.60208185056691,-114.73274562075865L65.72603051015045,-108.67292967251416L63.90372319165678,-134.5256815800849z" style="fill:rgb(83,212,212)"/><path d="M99.61941326996464,-45.07627708797014L97.1866389185173,-51.13322392722828L90.75191215105204,-61.836872743010176z" style="fill:rgb(12,71,124)"/><path d="M-95.68303026785357,-34.228197184857656L-102.16355755229533,-26.781284830993823L-98.61763037923708,-20.845770156248026z" style="fill:rgb(246,149,167)"/><path d="M68.35137634860475,-102.25256733110105L53.60208185056691,-114.73274562075865L56.2610064240402,-108.36027172951285z" style="fill:rgb(34,46,160)"/><path d="M-128.23561961291122,-3.059710467145924L-124.04652490812158,-36.970094229848804L-128.2974838986242,-19.702956710439313zM75.24363623547328,-100.26307916026676L78.25845247821404,-129.64859662150985L72.68329424037188,-132.27783360946754z" style="fill:rgb(83,212,212)"/><path d="M68.35137634860475,-102.25256733110105L65.72603051015045,-108.67292967251416L53.60208185056691,-114.73274562075865z" style="fill:rgb(34,46,160)"/><path d="M-106.04537767829311,31.834220661873907L-101.21113196477337,47.29716411162791L-85.97778100996443,72.18274180417453zM106.65054873813504,25.03626518275426L102.61702252977696,-86.59631394922626L95.10525500153092,-90.37851281109216zM-84.43553714591607,74.70219768548897L-76.32245501349776,33.14757270259897L-80.39940224133738,21.364515866337143zM65.72603051015045,-108.67292967251416L75.24363623547328,-100.26307916026676L72.68329424037188,-132.27783360946754z" style="fill:rgb(83,212,212)"/><path d="M-98.61763037923708,-20.845770156248026L-102.16355755229533,-26.781284830993823L-101.76243077161149,-13.989014471428364zM126.22596930658017,-55.918936423003366L123.93525062742162,-62.05306393988637L128.43183222418548,-46.033979146812094z" style="fill:rgb(246,167,149)"/><path d="M81.68629695662852,-89.72485014617834L80.15560211953452,-128.75392522499692L78.25845247821404,-129.64859662150985z" style="fill:rgb(83,212,212)"/><path d="M-98.61763037923708,-20.845770156248026L-101.76243077161149,-13.989014471428364L-98.17110655528288,-8.04575706362943z" style="fill:rgb(246,167,149)"/><path d="M77.85107658211119,-93.80238677260996L65.72603051015045,-108.67292967251416L68.35137634860475,-102.25256733110105z" style="fill:rgb(21,57,142)"/><path d="M-128.23561961291122,-3.059710467145924L-108.58311710700018,36.95559700432184L-96.95168378528443,-78.52760474558946zM106.65054873813504,25.03626518275426L115.14697859616805,-75.70584751003017L102.61702252977696,-86.59631394922626z" style="fill:rgb(83,212,212)"/><path d="M126.22596930658017,-55.918936423003366L128.43183222418548,-46.033979146812094L130.73716379802104,-39.88321676312478z" style="fill:rgb(246,167,149)"/><path d="M-85.97778100996443,72.18274180417453L-84.43553714591607,74.70219768548897L-80.39940224133738,21.364515866337143z" style="fill:rgb(83,212,212)"/><path d="M77.85107658211119,-93.80238677260996L75.24363623547328,-100.26307916026676L65.72603051015045,-108.67292967251416z" style="fill:rgb(21,57,142)"/><path d="M-79.81144065501324,82.25622399015803L-68.8513769469428,43.38720992964124L-76.32245501349776,33.14757270259897zM75.24363623547328,-100.26307916026676L81.68629695662852,-89.72485014617834L78.25845247821404,-129.64859662150985z" style="fill:rgb(83,212,212)"/><path d="M-98.17110655528288,-8.04575706362943L-101.76243077161149,-13.989014471428364L-97.84284227977581,-2.2893770600076584zM-98.17110655528288,-8.04575706362943L-97.84284227977581,-2.2893770600076584L-94.22364698180637,3.670239155717686z" style="fill:rgb(242,183,130)"/><path d="M84.2934405672586,-83.23377097983598L75.24363623547328,-100.26307916026676L77.85107658211119,-93.80238677260996z" style="fill:rgb(12,71,124)"/><path d="M106.65054873813504,25.03626518275426L123.93525062742162,-62.05306393988637L115.14697859616805,-75.70584751003017zM-84.43553714591607,74.70219768548897L-79.81144065501324,82.25622399015803L-76.32245501349776,33.14757270259897z" style="fill:rgb(83,212,212)"/><path d="M130.73716379802104,-39.88321676312478L128.43183222418548,-46.033979146812094L128.22129292356166,-28.19418920437412z" style="fill:rgb(246,149,167)"/><path d="M81.68629695662852,-89.72485014617834L84.66866526318898,-77.38445094398499L80.15560211953452,-128.75392522499692zM-108.58311710700018,36.95559700432184L-101.76243077161149,-13.989014471428364L-102.16355755229533,-26.781284830993823z" style="fill:rgb(83,212,212)"/><path d="M130.73716379802104,-39.88321676312478L128.22129292356166,-28.19418920437412L130.56613354321868,-22.043814905044698z" style="fill:rgb(246,149,167)"/><path d="M84.2934405672586,-83.23377097983598L81.68629695662852,-89.72485014617834L75.24363623547328,-100.26307916026676z" style="fill:rgb(12,71,124)"/><path d="M-72.11704525293989,94.82597422416079L-58.150190349826126,51.605548741631374L-68.8513769469428,43.38720992964124zM106.65054873813504,25.03626518275426L128.43183222418548,-46.033979146812094L123.93525062742162,-62.05306393988637zM-79.81144065501324,82.25622399015803L-72.11704525293989,94.82597422416079L-68.8513769469428,43.38720992964124zM-128.23561961291122,-3.059710467145924L-123.63616542808718,12.310641173030206L-108.58311710700018,36.95559700432184zM90.25755428791247,-13.76950182200816L87.80577841453673,-125.1461166434814L80.15560211953452,-128.75392522499692zM-107.05725974692966,39.45374948108365L-97.84284227977581,-2.2893770600076584L-101.76243077161149,-13.989014471428364zM105.00179822577248,28.47523799975047L100.27490451619973,-38.69910156452646L99.754576387802,-24.975144115982783z" style="fill:rgb(83,212,212)"/><path d="M130.56613354321868,-22.043814905044698L128.22129292356166,-28.19418920437412L123.07635206873626,-9.224697874579588z" style="fill:rgb(242,130,183)"/><path d="M111.79375023700878,-94.56579374752197L109.33837171100406,-101.14084984316463L113.73126058589972,-85.25600096155547z" style="fill:rgb(246,167,149)"/><path d="M130.56613354321868,-22.043814905044698L123.07635206873626,-9.224697874579588L125.4864834375802,-3.0925305625018105z" style="fill:rgb(242,130,183)"/><path d="M-61.38333583324102,112.3608155953061L-44.5421767028413,57.37785117586155L-58.150190349826126,51.605548741631374zM106.65054873813504,25.03626518275426L128.22129292356166,-28.19418920437412L128.43183222418548,-46.033979146812094zM90.25755428791247,-13.76950182200816L100.50771229762125,-114.56351444412431L87.80577841453673,-125.1461166434814z" style="fill:rgb(83,212,212)"/><path d="M111.79375023700878,-94.56579374752197L113.73126058589972,-85.25600096155547L116.2053647696579,-78.65494586500971z" style="fill:rgb(246,167,149)"/><path d="M-108.58311710700018,36.95559700432184L-107.05725974692966,39.45374948108365L-101.76243077161149,-13.989014471428364zM100.07387055563323,38.75390914199076L99.754576387802,-24.975144115982783L95.50976204360076,-10.496175170467442zM-102.48023836970866,46.94727342986258L-90.40881103445611,7.815734971852189L-97.84284227977581,-2.2893770600076584zM-72.11704525293989,94.82597422416079L-61.38333583324102,112.3608155953061L-58.150190349826126,51.605548741631374zM106.65054873813504,25.03626518275426L123.07635206873626,-9.224697874579588L128.22129292356166,-28.19418920437412zM105.00179822577248,28.47523799975047L106.65054873813504,25.03626518275426L100.27490451619973,-38.69910156452646zM90.25755428791247,-13.76950182200816L109.33837171100406,-101.14084984316463L100.50771229762125,-114.56351444412431zM-107.05725974692966,39.45374948108365L-102.48023836970866,46.94727342986258L-97.84284227977581,-2.2893770600076584z" style="fill:rgb(83,212,212)"/><path d="M116.2053647696579,-78.65494586500971L113.73126058589972,-85.25600096155547L113.25834017642472,-67.44109831881315z" style="fill:rgb(246,149,167)"/><path d="M-47.67940630973746,134.74788620339004L-28.51416641991553,60.36519823945241L-44.5421767028413,57.37785117586155zM91.92505553082826,55.75070509628239L95.50976204360076,-10.496175170467442L87.5986969480749,4.127763888453143zM100.07387055563323,38.75390914199076L105.00179822577248,28.47523799975047L99.754576387802,-24.975144115982783z" style="fill:rgb(83,212,212)"/><path d="M116.2053647696579,-78.65494586500971L113.25834017642472,-67.44109831881315L115.77786409025816,-60.83254226116913z" style="fill:rgb(246,149,167)"/><path d="M-94.85730194637199,59.427590891441945L-79.61333657609376,15.848699760891709L-90.40881103445611,7.815734971852189zM90.25755428791247,-13.76950182200816L113.73126058589972,-85.25600096155547L109.33837171100406,-101.14084984316463zM-102.48023836970866,46.94727342986258L-94.85730194637199,59.427590891441945L-90.40881103445611,7.815734971852189zM-61.38333583324102,112.3608155953061L-47.67940630973746,134.74788620339004L-44.5421767028413,57.37785117586155zM80.66297116697014,79.24114671923394L87.5986969480749,4.127763888453143L76.27114680197641,18.241470690711242zM91.92505553082826,55.75070509628239L100.07387055563323,38.75390914199076L95.50976204360076,-10.496175170467442zM88.50638159514662,-10.292027635815819L84.66866526318898,-77.38445094398499L83.92299125551429,-63.67430220154448z" style="fill:rgb(83,212,212)"/><path d="M115.77786409025816,-60.83254226116913L113.25834017642472,-67.44109831881315L107.68689831034426,-48.380562702818764z" style="fill:rgb(242,130,183)"/><path d="M-31.08102916293542,159.5212754028215L-10.707214763527329,60.34719518972316L-28.51416641991553,60.36519823945241z" style="fill:rgb(83,212,212)"/><path d="M115.77786409025816,-60.83254226116913L107.68689831034426,-48.380562702818764L110.27943617099218,-41.78429272211073z" style="fill:rgb(242,130,183)"/><path d="M-84.20894845433432,76.86112192140122L-65.77511356805195,21.386536209413247L-79.61333657609376,15.848699760891709zM90.25755428791247,-13.76950182200816L113.25834017642472,-67.44109831881315L113.73126058589972,-85.25600096155547zM66.46026389782668,108.865159860104L76.27114680197641,18.241470690711242L61.97089538929409,31.184277169340003z" style="fill:rgb(83,212,212)"/><path d="M125.4864834375802,-3.0925305625018105L123.07635206873626,-9.224697874579588L53.35296736206125,136.20436813287208z" style="fill:rgb(234,115,195)"/><path d="M-11.661920512143285,158.5589150265053L8.109423039717734,57.24926565501434L-10.707214763527329,60.34719518972316zM80.66297116697014,79.24114671923394L91.92505553082826,55.75070509628239L87.5986969480749,4.127763888453143zM83.27048284498214,0.10537846491054202L83.92299125551429,-63.67430220154448L79.33328324835597,-49.12574059214811zM-94.85730194637199,59.427590891441945L-84.20894845433432,76.86112192140122L-79.61333657609376,15.848699760891709zM8.82430945587834,154.07574810643638L27.080373072385147,51.16022469438444L8.109423039717734,57.24926565501434zM90.25755428791247,-13.76950182200816L107.68689831034426,-48.380562702818764L113.25834017642472,-67.44109831881315zM29.519631682643652,149.5468236719845L45.31931646103723,42.33547476478821L27.080373072385147,51.16022469438444zM49.48084031669339,141.82532626754642L61.97089538929409,31.184277169340003L45.31931646103723,42.33547476478821zM88.50638159514662,-10.292027635815819L90.25755428791247,-13.76950182200816L84.66866526318898,-77.38445094398499zM-47.67940630973746,134.74788620339004L-31.08102916293542,159.5212754028215L-28.51416641991553,60.36519823945241zM-70.5896620165159,99.15870291872233L-49.38462060845597,24.09440954839568L-65.77511356805195,21.386536209413247zM74.60634449901518,17.31055022861842L79.33328324835597,-49.12574059214811L70.96483630478333,-34.35089680866072zM66.46026389782668,108.865159860104L80.66297116697014,79.24114671923394L76.27114680197641,18.241470690711242zM83.27048284498214,0.10537846491054202L88.50638159514662,-10.292027635815819L83.92299125551429,-63.67430220154448zM-31.08102916293542,159.5212754028215L-11.661920512143285,158.5589150265053L-10.707214763527329,60.34719518972316zM-84.20894845433432,76.86112192140122L-70.5896620165159,99.15870291872233L-65.77511356805195,21.386536209413247zM62.61961139145364,41.11371044294282L70.96483630478333,-34.35089680866072L59.08272990464747,-20.012836350058222zM74.60634449901518,17.31055022861842L83.27048284498214,0.10537846491054202L79.33328324835597,-49.12574059214811z" style="fill:rgb(83,212,212)"/><path d="M125.4864834375802,-3.0925305625018105L53.35296736206125,136.20436813287208L56.44994797017189,142.0128695845027z" style="fill:rgb(234,115,195)"/><path d="M-11.661920512143285,158.5589150265053L8.82430945587834,154.07574810643638L8.109423039717734,57.24926565501434zM-54.00998826756342,123.86217019797452L-31.095857664278814,23.75908627728037L-49.38462060845597,24.09440954839568zM49.48084031669339,141.82532626754642L66.46026389782668,108.865159860104L61.97089538929409,31.184277169340003zM-47.67940630973746,134.74788620339004L-34.86345680886152,155.68433646160483L-33.5613928686175,157.61380286748604zM8.82430945587834,154.07574810643638L29.519631682643652,149.5468236719845L27.080373072385147,51.16022469438444zM-47.67940630973746,134.74788620339004L-33.5613928686175,157.61380286748604L-31.77212118736733,159.17062642418662zM47.4823878575857,71.17309041120406L59.08272990464747,-20.012836350058222L44.15443136126841,-6.785329347300402z" style="fill:rgb(83,212,212)"/><path d="M110.27943617099218,-41.78429272211073L107.68689831034426,-48.380562702818764L33.49218719465957,98.95472274875695z" style="fill:rgb(234,115,195)"/><path d="M-47.67940630973746,134.74788620339004L-31.77212118736733,159.17062642418662L-31.08102916293542,159.5212754028215zM29.519631682643652,149.5468236719845L49.48084031669339,141.82532626754642L45.31931646103723,42.33547476478821zM-33.98149680836434,122.57763243090402L-11.700310024275668,20.316772198283555L-31.095857664278814,23.75908627728037z" style="fill:rgb(83,212,212)"/><path d="M-29.977083671486376,163.17584522314635L-34.86345680886152,155.68433646160483L-31.27880950794179,161.24633183743842z" style="fill:rgb(21,57,142)"/><path d="M62.61961139145364,41.11371044294282L74.60634449901518,17.31055022861842L70.96483630478333,-34.35089680866072z" style="fill:rgb(83,212,212)"/><path d="M-28.191627702656753,164.73444220407234L-33.5613928686175,157.61380286748604L-29.977083671486376,163.17584522314635z" style="fill:rgb(34,46,160)"/><path d="M-29.977083671486376,163.17584522314635L-33.5613928686175,157.61380286748604L-34.86345680886152,155.68433646160483z" style="fill:rgb(21,57,142)"/><path d="M-25.989118793926835,165.8590743939217L-31.77212118736733,159.17062642418662L-28.191627702656753,164.73444220407234z" style="fill:rgb(51,38,177)"/><path d="M-12.774004653403617,117.72063706587811L7.9164193865493875,13.870728696054643L-11.700310024275668,20.316772198283555z" style="fill:rgb(83,212,212)"/><path d="M-28.191627702656753,164.73444220407234L-31.77212118736733,159.17062642418662L-33.5613928686175,157.61380286748604z" style="fill:rgb(34,46,160)"/><path d="M-23.453567498001984,166.50316265612764L-29.562442314124322,160.2917943288432L-25.989118793926835,165.8590743939217z" style="fill:rgb(71,33,192)"/><path d="M-25.989118793926835,165.8590743939217L-29.562442314124322,160.2917943288432L-31.77212118736733,159.17062642418662z" style="fill:rgb(51,38,177)"/><path d="M-20.68324059544148,166.63900931287426L-27.016615078649224,160.93083621394746L-23.453567498001984,166.50316265612764z" style="fill:rgb(92,32,204)"/><path d="M8.65885558168778,112.81202712894091L26.832346739362823,4.693861452760462L7.9164193865493875,13.870728696054643zM29.39796876654423,104.69087068429971L44.15443136126841,-6.785329347300402L26.832346739362823,4.693861452760462z" style="fill:rgb(83,212,212)"/><path d="M-23.453567498001984,166.50316265612764L-27.016615078649224,160.93083621394746L-29.562442314124322,160.2917943288432z" style="fill:rgb(71,33,192)"/><path d="M-17.786846437904515,166.25927388682123L-24.233306856709714,161.06022290291656L-20.68324059544148,166.63900931287426z" style="fill:rgb(115,34,214)"/><path d="M-70.5896620165159,99.15870291872233L-54.00998826756342,123.86217019797452L-49.38462060845597,24.09440954839568zM-31.08102916293542,159.5212754028215L-29.562442314124322,160.2917943288432L-27.016615078649224,160.93083621394746z" style="fill:rgb(83,212,212)"/><path d="M-20.68324059544148,166.63900931287426L-24.233306856709714,161.06022290291656L-27.016615078649224,160.93083621394746z" style="fill:rgb(92,32,204)"/><path d="M-31.08102916293542,159.5212754028215L-27.016615078649224,160.93083621394746L-24.233306856709714,161.06022290291656z" style="fill:rgb(83,212,212)"/><path d="M-17.786846437904515,166.25927388682123L-21.321742388044925,160.6728431255228L-24.233306856709714,161.06022290291656z" style="fill:rgb(115,34,214)"/><path d="M-31.08102916293542,159.5212754028215L-24.233306856709714,161.06022290291656L-21.321742388044925,160.6728431255228zM-31.08102916293542,159.5212754028215L-21.321742388044925,160.6728431255228L-11.661920512143285,158.5589150265053z" style="fill:rgb(83,212,212)"/><path d="M42.62218417583575,153.13485128590602L-21.321742388044925,160.6728431255228L-17.786846437904515,166.25927388682123z" style="fill:rgb(127,37,217)"/><path d="M47.4823878575857,71.17309041120406L62.61961139145364,41.11371044294282L59.08272990464747,-20.012836350058222zM49.48084031669339,141.82532626754642L53.35296736206125,136.20436813287208L66.46026389782668,108.865159860104z" style="fill:rgb(83,212,212)"/><path d="M42.62218417583575,153.13485128590602L39.42531782951873,147.37908053206922L-21.321742388044925,160.6728431255228z" style="fill:rgb(127,37,217)"/><path d="M56.44994797017189,142.0128695845027L52.027637045998624,138.76129829623443L55.137922369280595,144.56235014964997z" style="fill:rgb(233,112,197)"/><path d="M55.137922369280595,144.56235014964997L50.1925557711592,141.1562852916454L53.31836185421512,146.9488574918964z" style="fill:rgb(220,94,208)"/><path d="M56.44994797017189,142.0128695845027L53.35296736206125,136.20436813287208L52.027637045998624,138.76129829623443z" style="fill:rgb(233,112,197)"/><path d="M53.31836185421512,146.9488574918964L47.9186638815645,143.29385439174106L51.0615940865285,149.07727143223764z" style="fill:rgb(203,77,216)"/><path d="M45.60523775994944,152.2331179308214L39.42531782951873,147.37908053206922L42.62218417583575,153.13485128590602z" style="fill:rgb(139,40,220)"/><path d="M-54.00998826756342,123.86217019797452L-33.98149680836434,122.57763243090402L-31.095857664278814,23.75908627728037z" style="fill:rgb(83,212,212)"/><path d="M51.0615940865285,149.07727143223764L45.29519299958297,145.0884949541214L48.45616861301889,150.86246474103856z" style="fill:rgb(183,62,221)"/><path d="M48.45616861301889,150.86246474103856L42.426031448912745,146.46849461276616L45.60523775994944,152.2331179308214z" style="fill:rgb(162,50,222)"/><path d="M55.137922369280595,144.56235014964997L52.027637045998624,138.76129829623443L50.1925557711592,141.1562852916454z" style="fill:rgb(220,94,208)"/><path d="M53.31836185421512,146.9488574918964L50.1925557711592,141.1562852916454L47.9186638815645,143.29385439174106z" style="fill:rgb(203,77,216)"/><path d="M45.60523775994944,152.2331179308214L42.426031448912745,146.46849461276616L39.42531782951873,147.37908053206922z" style="fill:rgb(139,40,220)"/><path d="M49.48084031669339,141.82532626754642L52.027637045998624,138.76129829623443L53.35296736206125,136.20436813287208z" style="fill:rgb(83,212,212)"/><path d="M51.0615940865285,149.07727143223764L47.9186638815645,143.29385439174106L45.29519299958297,145.0884949541214z" style="fill:rgb(183,62,221)"/><path d="M48.45616861301889,150.86246474103856L45.29519299958297,145.0884949541214L42.426031448912745,146.46849461276616z" style="fill:rgb(162,50,222)"/><path d="M49.48084031669339,141.82532626754642L50.1925557711592,141.1562852916454L52.027637045998624,138.76129829623443zM29.519631682643652,149.5468236719845L47.9186638815645,143.29385439174106L49.48084031669339,141.82532626754642zM29.519631682643652,149.5468236719845L39.42531782951873,147.37908053206922L42.426031448912745,146.46849461276616zM29.519631682643652,149.5468236719845L45.29519299958297,145.0884949541214L47.9186638815645,143.29385439174106zM29.519631682643652,149.5468236719845L42.426031448912745,146.46849461276616L45.29519299958297,145.0884949541214z" style="fill:rgb(83,212,212)"/><path d="M110.27943617099218,-41.78429272211073L33.49218719465957,98.95472274875695L36.84837442281149,105.24937591174135z" style="fill:rgb(234,115,195)"/><path d="M-33.98149680836434,122.57763243090402L-12.774004653403617,117.72063706587811L-11.700310024275668,20.316772198283555zM29.39796876654423,104.69087068429971L47.4823878575857,71.17309041120406L44.15443136126841,-6.785329347300402zM-70.5896620165159,99.15870291872233L-57.82811616514606,120.05199284776448L-56.52624113001069,121.97750392204432zM-12.774004653403617,117.72063706587811L8.65885558168778,112.81202712894091L7.9164193865493875,13.870728696054643zM-70.5896620165159,99.15870291872233L-56.52624113001069,121.97750392204432L-54.71478278121894,123.51947419917396zM-70.5896620165159,99.15870291872233L-54.71478278121894,123.51947419917396L-54.00998826756342,123.86217019797452zM8.65885558168778,112.81202712894091L29.39796876654423,104.69087068429971L26.832346739362823,4.693861452760462z" style="fill:rgb(83,212,212)"/><path d="M-52.64807824589603,127.995541261858L-57.82811616514606,120.05199284776448L-53.950271094544064,126.06891861501565z" style="fill:rgb(21,57,142)"/><path d="M-50.840094357967885,129.54044297521284L-56.52624113001069,121.97750392204432L-52.64807824589603,127.995541261858z" style="fill:rgb(34,46,160)"/><path d="M-52.64807824589603,127.995541261858L-56.52624113001069,121.97750392204432L-57.82811616514606,120.05199284776448z" style="fill:rgb(21,57,142)"/><path d="M-48.5936645161895,130.64091087564742L-54.71478278121894,123.51947419917396L-50.840094357967885,129.54044297521284z" style="fill:rgb(51,38,177)"/><path d="M-50.840094357967885,129.54044297521284L-54.71478278121894,123.51947419917396L-56.52624113001069,121.97750392204432z" style="fill:rgb(34,46,160)"/><path d="M-45.994362132928416,131.25112180639832L-52.46117992458077,124.61527135725993L-48.5936645161895,130.64091087564742z" style="fill:rgb(71,33,192)"/><path d="M-48.5936645161895,130.64091087564742L-52.46117992458077,124.61527135725993L-54.71478278121894,123.51947419917396z" style="fill:rgb(51,38,177)"/><path d="M-43.14290616172376,131.34454235928968L-49.85126694366112,125.21922197102379L-45.994362132928416,131.25112180639832z" style="fill:rgb(92,32,204)"/><path d="M-45.994362132928416,131.25112180639832L-49.85126694366112,125.21922197102379L-52.46117992458077,124.61527135725993z" style="fill:rgb(71,33,192)"/><path d="M-40.15123964418813,130.91539584149774L-46.98616946413764,125.3050110439357L-43.14290616172376,131.34454235928968z" style="fill:rgb(115,34,214)"/><path d="M-54.00998826756342,123.86217019797452L-52.46117992458077,124.61527135725993L-49.85126694366112,125.21922197102379z" style="fill:rgb(83,212,212)"/><path d="M-43.14290616172376,131.34454235928968L-46.98616946413764,125.3050110439357L-49.85126694366112,125.21922197102379z" style="fill:rgb(92,32,204)"/><path d="M-54.00998826756342,123.86217019797452L-49.85126694366112,125.21922197102379L-46.98616946413764,125.3050110439357z" style="fill:rgb(83,212,212)"/><path d="M-40.15123964418813,130.91539584149774L-43.97836843463661,124.86713301191581L-46.98616946413764,125.3050110439357z" style="fill:rgb(115,34,214)"/><path d="M-54.00998826756342,123.86217019797452L-46.98616946413764,125.3050110439357L-43.97836843463661,124.86713301191581zM-54.00998826756342,123.86217019797452L-43.97836843463661,124.86713301191581L-33.98149680836434,122.57763243090402z" style="fill:rgb(83,212,212)"/><path d="M22.386105959421663,116.70102841977724L-43.97836843463661,124.86713301191581L-40.15123964418813,130.91539584149774z" style="fill:rgb(127,37,217)"/><path d="M29.39796876654423,104.69087068429971L33.49218719465957,98.95472274875695L47.4823878575857,71.17309041120406z" style="fill:rgb(83,212,212)"/><path d="M22.386105959421663,116.70102841977724L18.92073221281625,110.46182324993993L-43.97836843463661,124.86713301191581z" style="fill:rgb(127,37,217)"/><path d="M36.84837442281149,105.24937591174135L32.08005805091161,101.55667329449066L35.451092397196184,107.84405319841964z" style="fill:rgb(233,112,197)"/><path d="M35.451092397196184,107.84405319841964L30.144290709470287,104.00390999912977L33.532477261442,110.28272383001577z" style="fill:rgb(220,94,208)"/><path d="M36.84837442281149,105.24937591174135L33.49218719465957,98.95472274875695L32.08005805091161,101.55667329449066z" style="fill:rgb(233,112,197)"/><path d="M33.532477261442,110.28272383001577L27.75977544190797,106.19878831636623L31.166753728089198,112.46808355353919z" style="fill:rgb(203,77,216)"/><path d="M25.480588076147047,115.74253471465839L18.92073221281625,110.46182324993993L22.386105959421663,116.70102841977724z" style="fill:rgb(139,40,220)"/><path d="M31.166753728089198,112.46808355353919L25.02020648001105,108.05336769651105L28.446847939111027,114.3126172197123z" style="fill:rgb(183,62,221)"/><path d="M28.446847939111027,114.3126172197123L22.034209688016908,109.49346465201673L25.480588076147047,115.74253471465839z" style="fill:rgb(162,50,222)"/><path d="M35.451092397196184,107.84405319841964L32.08005805091161,101.55667329449066L30.144290709470287,104.00390999912977z" style="fill:rgb(220,94,208)"/><path d="M33.532477261442,110.28272383001577L30.144290709470287,104.00390999912977L27.75977544190797,106.19878831636623z" style="fill:rgb(203,77,216)"/><path d="M25.480588076147047,115.74253471465839L22.034209688016908,109.49346465201673L18.92073221281625,110.46182324993993z" style="fill:rgb(139,40,220)"/><path d="M29.39796876654423,104.69087068429971L32.08005805091161,101.55667329449066L33.49218719465957,98.95472274875695z" style="fill:rgb(83,212,212)"/><path d="M31.166753728089198,112.46808355353919L27.75977544190797,106.19878831636623L25.02020648001105,108.05336769651105z" style="fill:rgb(183,62,221)"/><path d="M28.446847939111027,114.3126172197123L25.02020648001105,108.05336769651105L22.034209688016908,109.49346465201673z" style="fill:rgb(162,50,222)"/><path d="M29.39796876654423,104.69087068429971L30.144290709470287,104.00390999912977L32.08005805091161,101.55667329449066zM8.65885558168778,112.81202712894091L27.75977544190797,106.19878831636623L29.39796876654423,104.69087068429971zM8.65885558168778,112.81202712894091L18.92073221281625,110.46182324993993L22.034209688016908,109.49346465201673zM8.65885558168778,112.81202712894091L25.02020648001105,108.05336769651105L27.75977544190797,106.19878831636623zM8.65885558168778,112.81202712894091L22.034209688016908,109.49346465201673L25.02020648001105,108.05336769651105z" style="fill:rgb(83,212,212)"/></svg>
